{"glyphs":{"0":{"ha":791,"x_min":60,"x_max":731,"o":"m 60 509 q 395 1017 60 1017 q 731 509 731 1017 q 395 0 731 0 q 60 509 60 0 m 629 509 q 395 916 629 916 q 161 509 161 916 q 395 102 161 102 q 629 509 629 102 z "},"1":{"ha":646,"x_min":153,"x_max":533,"o":"m 292 795 l 153 795 l 153 859 q 317 1017 297 859 l 394 1017 l 394 102 l 533 102 l 533 0 l 153 0 l 153 102 l 292 102 l 292 795 z "},"2":{"ha":766,"x_min":74,"x_max":705,"o":"m 412 489 q 603 714 603 572 q 389 916 603 916 q 176 714 176 916 l 74 714 q 389 1017 74 1017 q 705 714 705 1017 q 446 391 705 503 l 316 335 q 176 102 176 277 l 705 102 l 705 0 l 74 0 l 74 102 q 282 433 74 345 l 412 489 z "},"3":{"ha":775,"x_min":66,"x_max":696,"o":"m 381 584 q 574 750 574 584 q 381 916 574 916 q 188 750 188 916 l 86 750 q 381 1017 86 1017 q 676 751 676 1017 q 584 536 676 602 q 696 292 696 467 q 381 0 696 0 q 66 294 66 0 l 168 294 q 381 102 168 102 q 595 294 595 102 q 381 485 595 485 l 328 485 l 328 584 l 381 584 z "},"4":{"ha":740,"x_min":27,"x_max":705,"o":"m 473 835 l 150 352 l 473 352 l 473 835 m 473 1017 l 575 1017 l 575 352 l 705 352 l 705 250 l 575 250 l 575 0 l 473 0 l 473 250 l 27 250 l 27 352 l 473 1017 z "},"5":{"ha":777,"x_min":84,"x_max":705,"o":"m 705 339 q 408 0 705 0 q 84 269 118 0 l 186 269 q 408 102 220 102 q 603 339 603 102 q 415 576 603 576 q 220 490 278 576 l 121 490 l 169 1017 l 657 1017 l 657 916 l 260 916 l 235 644 q 415 678 308 678 q 705 339 705 678 z "},"6":{"ha":734,"x_min":58,"x_max":688,"o":"m 165 389 q 373 102 194 102 q 587 322 587 102 q 373 543 587 543 q 165 389 195 543 m 373 0 q 58 509 58 0 q 407 1017 58 1017 q 688 779 688 1017 l 587 779 q 407 916 587 916 q 162 586 184 916 q 373 644 239 644 q 688 322 688 644 q 373 0 688 0 z "},"7":{"ha":748,"x_min":67,"x_max":698,"o":"m 698 916 l 336 0 l 227 0 l 589 916 l 67 916 l 67 1017 l 698 1017 l 698 916 z "},"8":{"ha":731,"x_min":50,"x_max":681,"o":"m 366 916 q 172 746 172 916 q 366 576 172 576 q 559 746 559 576 q 366 916 559 916 m 366 475 q 152 288 152 475 q 366 102 152 102 q 579 288 579 102 q 366 475 579 475 m 161 529 q 71 746 71 595 q 366 1017 71 1017 q 661 746 661 1017 q 570 529 661 595 q 681 288 681 459 q 366 0 681 0 q 50 288 50 0 q 161 529 50 459 z "},"9":{"ha":734,"x_min":45,"x_max":676,"o":"m 569 629 q 361 916 540 916 q 147 695 147 916 q 361 475 147 475 q 569 629 539 475 m 361 1017 q 676 509 676 1017 q 327 0 676 0 q 45 239 45 0 l 147 239 q 327 102 147 102 q 572 431 549 102 q 361 373 495 373 q 45 695 45 373 q 361 1017 45 1017 z "}," ":{"ha":386,"x_min":0,"x_max":0,"o":""},"!":{"ha":591,"x_min":305,"x_max":422,"o":"m 415 1013 l 415 543 l 388 233 l 340 233 l 313 543 l 313 1013 l 415 1013 m 422 144 l 422 0 l 305 0 l 305 144 l 422 144 z "},"\"":{"ha":493,"x_min":72,"x_max":423,"o":"m 72 985 l 201 985 l 201 831 l 163 644 l 109 644 l 72 831 l 72 985 m 294 985 l 423 985 l 423 831 l 386 644 l 332 644 l 294 831 l 294 985 z "},"#":{"ha":772,"x_min":19,"x_max":752,"o":"m 673 968 l 623 696 l 752 696 l 752 602 l 605 602 l 562 359 l 708 359 l 708 265 l 545 265 l 491 -27 l 386 -27 l 438 265 l 267 265 l 212 -27 l 106 -27 l 159 265 l 19 265 l 19 359 l 177 359 l 220 602 l 71 602 l 71 696 l 239 696 l 288 968 l 394 968 l 344 696 l 517 696 l 566 968 l 673 968 m 500 602 l 328 602 l 283 359 l 456 359 l 500 602 z "},"$":{"ha":772,"x_min":47,"x_max":722,"o":"m 340 1069 l 422 1069 l 422 994 q 662 852 597 982 q 691 734 688 800 l 691 721 l 582 721 q 501 875 581 828 q 440 896 473 890 q 422 897 431 897 l 422 551 q 604 485 561 509 q 722 271 722 418 q 627 41 722 126 q 594 17 612 28 q 422 -32 526 -23 l 422 -175 l 340 -175 l 340 -32 q 66 144 126 -18 q 47 264 47 199 q 48 289 47 277 l 158 289 q 187 153 168 186 q 193 143 190 149 q 340 64 241 77 l 340 441 q 165 514 211 481 q 66 717 66 585 q 260 978 66 920 q 340 994 297 989 l 340 1069 m 340 562 l 340 896 q 183 772 207 878 q 179 730 179 753 q 340 562 179 606 m 422 429 l 422 64 q 549 115 507 74 q 608 254 608 171 q 543 380 608 339 q 422 429 503 406 z "},"%":{"ha":1234,"x_min":40,"x_max":1193,"o":"m 276 951 q 464 860 393 951 l 489 821 q 513 711 513 770 q 426 530 513 602 q 277 476 361 476 q 93 564 165 476 q 40 714 40 631 q 127 899 40 827 q 276 951 193 951 m 276 854 q 159 790 201 854 l 143 758 q 136 714 136 736 q 198 597 136 640 q 277 574 235 574 q 394 636 353 574 q 418 713 418 671 q 351 833 418 791 q 276 854 318 854 m 846 985 l 937 985 l 389 -27 l 297 -27 l 846 985 m 956 447 q 1144 355 1074 447 q 1193 208 1193 292 q 1105 28 1193 98 q 957 -26 1040 -26 q 772 61 844 -26 q 719 211 719 127 q 808 395 719 323 q 956 447 873 447 m 956 350 q 839 288 880 350 q 815 211 815 253 q 880 93 815 135 q 957 71 915 71 q 1074 134 1031 71 q 1097 208 1097 168 q 1030 329 1097 288 l 998 343 q 956 350 977 350 z "},"&":{"ha":926,"x_min":72,"x_max":884,"o":"m 684 464 l 795 464 q 715 210 795 334 l 884 0 l 733 0 l 647 109 q 540 18 579 41 q 357 -32 462 -32 q 118 82 195 -32 q 72 244 72 150 q 144 431 72 357 q 297 541 194 481 q 187 729 199 663 q 184 766 184 747 q 275 939 184 873 q 422 985 338 985 q 611 893 547 985 l 631 854 q 647 791 644 825 q 648 766 648 779 q 572 603 648 671 q 456 525 532 567 l 642 298 q 684 458 684 374 l 684 464 m 395 599 q 529 721 508 669 q 538 770 538 742 q 476 873 538 842 q 418 888 450 888 q 307 818 334 888 q 298 768 298 796 q 333 673 298 722 l 395 599 m 581 191 l 358 468 q 199 315 227 385 q 189 254 189 288 q 264 111 189 164 q 370 77 312 77 q 558 167 464 77 q 581 191 569 178 z "},"'":{"ha":265,"x_min":66,"x_max":197,"o":"m 66 985 l 197 985 l 197 831 l 159 644 l 104 644 l 66 831 l 66 985 z "},"(":{"ha":777,"x_min":170,"x_max":472,"o":"m 396 1013 l 472 1013 q 283 416 300 734 q 282 359 282 387 q 452 -259 282 36 q 472 -294 461 -277 l 396 -294 q 188 178 239 -89 q 170 359 170 272 q 298 857 170 608 q 396 1013 342 942 z "},")":{"ha":777,"x_min":305,"x_max":608,"o":"m 382 -294 l 305 -294 q 494 301 477 -16 q 496 358 496 330 q 326 978 496 682 q 305 1013 316 996 l 382 1013 q 590 541 538 807 q 608 358 608 446 q 479 -138 608 110 q 382 -294 436 -223 z "},"*":{"ha":896,"x_min":305,"x_max":726,"o":"m 472 1013 l 559 1013 l 553 857 l 700 909 l 726 828 l 576 786 l 673 663 l 602 612 l 516 742 l 429 612 l 359 663 l 455 786 l 305 828 l 332 909 l 479 857 l 472 1013 z "},"+":{"ha":811,"x_min":69,"x_max":741,"o":"m 741 371 l 741 273 l 454 273 l 454 -14 l 357 -14 l 357 273 l 69 273 l 69 371 l 357 371 l 357 659 l 454 659 l 454 371 l 741 371 z "},",":{"ha":386,"x_min":121,"x_max":267,"o":"m 121 144 l 267 144 l 267 -22 q 121 -204 267 -204 l 121 -151 q 195 -105 180 -149 q 204 -24 204 -79 l 204 0 l 121 0 l 121 144 z "},"-":{"ha":462,"x_min":64,"x_max":394,"o":"m 394 433 l 394 334 l 64 334 l 64 433 l 394 433 z "},".":{"ha":386,"x_min":121,"x_max":265,"o":"m 265 144 l 265 0 l 121 0 l 121 144 l 265 144 z "},"/":{"ha":386,"x_min":-11,"x_max":395,"o":"m 318 1013 l 395 1013 l 66 -27 l -11 -27 l 318 1013 z "},":":{"ha":386,"x_min":153,"x_max":297,"o":"m 297 144 l 297 0 l 153 0 l 153 144 l 297 144 m 297 728 l 297 583 l 153 583 l 153 728 l 297 728 z "},";":{"ha":386,"x_min":153,"x_max":298,"o":"m 298 728 l 298 583 l 154 583 l 154 728 l 298 728 m 153 144 l 298 144 l 298 -22 q 153 -204 298 -204 l 153 -151 q 227 -105 212 -149 q 236 -24 236 -79 l 236 0 l 153 0 l 153 144 z "},"<":{"ha":811,"x_min":62,"x_max":741,"o":"m 62 275 l 62 371 l 741 659 l 741 549 l 195 325 l 741 97 l 741 -12 l 62 275 z "},"=":{"ha":811,"x_min":69,"x_max":741,"o":"m 741 490 l 741 393 l 69 393 l 69 490 l 741 490 m 741 252 l 741 154 l 69 154 l 69 252 l 741 252 z "},">":{"ha":811,"x_min":69,"x_max":748,"o":"m 748 371 l 748 275 l 69 -12 l 69 97 l 616 321 l 69 549 l 69 659 l 748 371 z "},"?":{"ha":1075,"x_min":305,"x_max":905,"o":"m 656 277 l 532 277 l 532 353 q 570 473 532 422 q 643 550 594 504 q 676 579 652 558 q 780 762 779 671 q 695 901 780 860 l 652 916 q 602 921 629 921 q 447 840 488 921 q 423 704 423 793 l 305 704 q 368 931 305 850 q 555 1026 431 1012 q 610 1029 582 1029 q 862 914 785 1029 l 884 872 q 905 762 905 822 q 834 583 905 665 q 766 514 808 551 q 665 396 679 433 q 656 342 656 375 l 656 277 m 656 144 l 656 0 l 532 0 l 532 144 l 656 144 z "},"@":{"ha":1409,"x_min":47,"x_max":1320,"o":"m 923 696 l 1038 696 l 913 307 q 897 237 897 258 q 937 182 897 200 q 966 176 951 176 q 1128 277 1055 176 q 1200 496 1200 375 q 1065 786 1200 663 q 732 922 927 914 l 711 922 q 349 781 507 922 l 302 733 q 165 379 165 576 q 311 49 165 183 q 686 -90 460 -90 q 954 -45 795 -90 l 993 -138 q 679 -197 837 -197 q 247 -48 429 -197 q 51 294 77 90 q 47 358 47 326 q 179 753 47 572 q 267 850 218 807 q 626 1021 416 986 q 729 1029 677 1029 q 1130 889 960 1029 q 1316 571 1291 758 q 1320 513 1320 542 q 1201 203 1320 345 q 943 79 1095 79 q 790 186 809 79 q 593 86 699 86 q 414 182 479 86 q 366 340 366 250 q 476 608 366 492 q 723 725 583 724 q 892 604 840 725 l 923 696 m 715 636 q 554 538 623 636 q 491 339 491 450 q 557 199 491 245 q 629 175 590 175 q 770 265 709 175 q 838 449 817 332 q 846 503 844 479 l 846 512 q 789 616 846 581 q 715 636 755 636 z "},"ក":{"ha":814,"x_min":68,"x_max":712,"o":"m 136 -34 l 136 543 q 254 678 136 610 q 407 746 373 746 q 515 703 441 746 q 678 543 678 610 l 678 102 l 543 -34 l 543 509 q 449 586 543 532 q 330 640 355 640 q 288 629 304 640 q 271 543 271 620 l 271 102 l 136 -34 m 199 678 q 146 731 179 714 q 77 746 117 746 l 68 746 l 203 1017 l 414 1017 q 441 949 441 1017 q 515 1017 485 1017 l 712 1017 q 694 877 712 935 q 620 781 676 819 q 637 859 634 835 l 637 862 q 612 882 637 882 l 488 882 q 400 800 448 882 q 407 846 407 827 q 380 882 407 882 l 202 882 l 186 848 q 267 797 231 829 q 287 760 287 780 q 273 726 287 744 q 199 678 241 688 z "},"ខ":{"ha":814,"x_min":136,"x_max":678,"o":"m 271 682 q 317 720 317 707 q 294 739 317 739 l 271 739 l 271 682 m 543 373 l 678 509 l 678 203 q 559 68 678 136 q 407 0 441 0 q 299 43 373 0 q 136 203 136 136 l 136 427 q 407 522 271 427 q 543 678 543 617 l 543 780 q 449 857 543 803 q 330 911 355 911 q 288 901 304 911 q 271 814 271 891 l 298 814 q 407 743 407 814 q 305 607 407 671 q 166 543 203 543 q 136 597 136 543 l 136 814 q 254 949 136 882 q 407 1017 373 1017 q 515 975 441 1017 q 678 814 678 882 l 678 678 q 475 481 678 617 l 271 346 l 271 237 q 365 160 271 214 q 484 106 459 106 q 526 117 509 106 q 543 203 543 126 l 543 373 z "},"គ":{"ha":814,"x_min":68,"x_max":712,"o":"m 199 678 q 146 731 179 714 q 77 746 117 746 l 68 746 l 203 1017 l 414 1017 q 441 949 441 1017 q 515 1017 485 1017 l 712 1017 q 694 877 712 935 q 620 781 676 819 q 637 859 634 835 l 637 862 q 612 882 637 882 l 488 882 q 400 800 448 882 q 407 846 407 827 q 380 882 407 882 l 202 882 l 186 848 q 267 797 231 829 q 287 760 287 780 q 273 726 287 744 q 199 678 241 688 m 191 26 q 153 0 170 0 q 136 27 136 0 l 136 543 q 254 678 136 610 q 407 746 373 746 q 515 703 441 746 q 678 543 678 610 l 678 102 l 543 -34 l 543 509 q 449 586 543 532 q 330 640 355 640 q 288 629 304 640 q 271 543 271 620 l 271 237 q 381 339 315 339 q 443 315 410 339 q 475 248 475 291 q 407 173 475 203 q 356 203 395 203 q 316 178 337 203 l 191 26 z "},"ឃ":{"ha":1221,"x_min":68,"x_max":1153,"o":"m 271 278 q 258 237 271 251 q 355 161 258 214 q 483 106 457 106 q 525 117 509 106 q 543 203 543 126 l 543 583 q 446 637 543 624 q 414 669 414 642 q 431 736 414 696 l 543 1017 l 746 1017 q 728 877 746 935 q 667 793 710 819 q 678 859 678 835 q 644 882 678 882 l 554 882 l 507 764 q 635 714 593 749 q 678 627 678 680 l 678 216 q 762 161 701 194 q 890 106 864 106 q 932 117 916 106 q 949 203 949 126 l 949 583 q 853 637 949 624 q 821 669 821 642 q 838 736 821 696 l 949 1017 l 1153 1017 q 1135 877 1153 935 q 1074 793 1117 819 q 1085 859 1085 835 q 1051 882 1085 882 l 961 882 l 914 764 q 1042 714 1000 749 q 1085 627 1085 680 l 1085 203 q 964 68 1085 136 q 807 0 842 0 q 696 43 772 0 q 607 100 644 73 q 557 68 585 83 q 400 0 435 0 q 290 43 366 0 q 164 130 206 90 q 100 234 122 170 q 129 257 122 243 q 136 292 136 271 l 136 726 q 267 774 235 735 q 298 850 298 812 q 280 894 298 880 q 237 909 261 909 q 203 878 203 909 q 244 845 203 848 l 244 844 q 163 791 244 791 l 157 791 q 68 882 68 793 q 109 983 68 949 q 203 1017 149 1017 q 329 970 285 1017 q 373 854 373 922 q 346 719 373 780 q 271 610 319 658 l 271 278 z "},"ង":{"ha":814,"x_min":20,"x_max":678,"o":"m 494 882 q 545 890 537 883 q 549 899 549 894 q 540 918 549 906 q 494 953 513 953 q 471 936 481 953 q 467 925 467 931 q 494 882 467 909 m 136 433 l 136 482 l 109 454 l 136 433 m 591 806 q 678 678 678 736 l 678 102 l 627 51 q 559 0 576 0 q 496 56 543 0 l 357 222 l 193 28 q 153 0 170 0 q 136 27 136 0 l 136 346 l 50 412 q 20 468 20 434 q 53 572 20 536 l 117 643 q 190 678 149 678 q 271 637 230 678 l 271 210 l 407 372 l 543 210 l 543 678 q 503 781 543 729 q 475 780 489 780 l 339 780 q 203 746 231 780 q 136 814 136 766 l 136 1133 q 119 1160 136 1160 q 68 1139 103 1160 q 190 1289 136 1289 q 271 1133 271 1289 l 271 882 l 418 882 q 407 915 407 901 q 441 997 407 963 q 543 1031 475 1031 q 644 990 610 1031 q 677 907 677 949 l 677 907 q 619 823 677 864 q 591 806 606 813 z "},"ច":{"ha":814,"x_min":20,"x_max":705,"o":"m 543 605 q 495 534 495 558 q 522 509 495 509 l 543 509 l 543 605 m 147 882 l 114 791 q 229 742 186 776 q 271 654 271 707 l 271 278 q 258 237 271 251 q 355 161 258 214 q 483 106 457 106 q 525 117 509 106 q 543 203 543 126 l 543 407 l 522 407 q 432 434 458 407 q 407 509 407 460 q 496 666 407 577 q 607 746 576 746 q 678 678 678 746 l 678 203 q 557 68 678 136 q 400 0 435 0 q 290 43 366 0 q 164 130 206 90 q 100 234 122 170 q 129 257 122 243 q 136 292 136 271 l 136 610 q 53 665 136 651 q 20 696 20 669 q 37 764 20 723 l 136 1017 l 386 1017 q 413 949 413 1017 q 488 1017 457 1017 l 705 1017 q 687 877 705 935 q 612 781 669 819 q 630 859 627 835 l 630 862 q 604 882 630 882 l 460 882 q 372 800 420 882 q 379 846 379 827 q 352 882 379 882 l 147 882 z "},"ឆ":{"ha":814,"x_min":7,"x_max":705,"o":"m 543 605 q 495 534 495 558 q 522 509 495 509 l 543 509 l 543 605 m 138 328 l 102 299 l 138 257 l 138 328 m 136 610 q 53 665 136 651 q 20 696 20 669 q 37 764 20 723 l 136 1017 l 386 1017 q 413 949 413 1017 q 488 1017 457 1017 l 705 1017 q 687 877 705 935 q 612 781 669 819 q 630 859 627 835 l 630 862 q 604 882 630 882 l 460 882 q 372 800 420 882 q 379 846 379 827 q 352 882 379 882 l 147 882 l 114 791 q 229 742 186 776 q 271 654 271 707 l 271 407 q 411 365 365 407 q 458 237 458 322 q 505 136 458 136 q 543 203 543 136 l 543 407 l 522 407 q 467 414 490 407 q 433 434 445 420 q 407 509 407 460 q 496 666 407 577 q 607 746 576 746 q 678 678 678 746 l 678 203 q 635 51 678 102 q 505 0 592 0 q 396 60 433 0 q 359 237 359 119 q 338 314 359 288 q 271 339 315 339 l 271 102 l 195 26 q 153 0 170 0 q 136 24 136 0 q 71 142 136 79 q 7 271 7 203 q 41 328 7 305 l 136 393 l 136 610 z "},"ជ":{"ha":814,"x_min":20,"x_max":705,"o":"m 648 867 q 560 811 601 811 q 543 814 552 811 q 555 859 552 835 l 555 862 q 530 882 555 882 l 147 882 l 114 791 q 229 742 186 776 q 271 654 271 707 l 271 210 l 407 372 l 543 210 l 543 610 l 678 746 l 678 102 l 627 51 q 559 0 576 0 q 496 56 543 0 l 357 222 l 193 28 q 153 0 170 0 q 136 27 136 0 l 136 610 q 53 665 136 651 q 20 696 20 669 q 37 764 20 723 l 136 1017 l 556 1017 q 602 997 587 1017 q 617 935 617 976 q 645 970 638 949 q 647 984 647 977 q 641 1005 647 996 q 578 1082 625 1031 q 502 1221 502 1165 q 540 1298 502 1261 q 667 1356 578 1335 q 614 1260 614 1303 q 660 1180 614 1230 q 705 1067 705 1130 q 702 1019 705 1041 q 648 867 692 920 z "},"ឈ":{"ha":1628,"x_min":20,"x_max":1560,"o":"m 271 210 q 332 311 332 270 q 305 339 332 339 l 271 339 l 271 210 m 1014 100 q 964 68 992 83 q 807 0 842 0 q 696 43 772 0 q 571 130 613 90 q 507 234 529 170 q 536 257 529 243 q 543 292 543 271 l 543 882 l 147 882 l 114 791 q 229 742 186 776 q 271 654 271 707 l 271 441 l 305 441 q 407 339 407 441 q 318 149 407 237 l 199 30 q 153 0 170 0 q 136 27 136 0 l 136 610 q 53 665 136 651 q 20 696 20 669 q 37 764 20 723 l 136 1017 l 678 1017 l 678 278 q 665 237 678 251 q 762 161 665 214 q 890 106 864 106 q 932 117 916 106 q 949 203 949 126 l 949 583 q 853 637 949 624 q 821 669 821 642 q 838 736 821 696 l 949 1017 l 1153 1017 q 1135 877 1153 935 q 1074 793 1117 819 q 1085 859 1085 835 q 1051 882 1085 882 l 961 882 l 914 764 q 1042 714 1000 749 q 1085 627 1085 680 l 1085 216 q 1169 161 1108 194 q 1297 106 1271 106 q 1339 117 1322 106 q 1356 203 1356 126 l 1356 583 q 1260 637 1356 624 q 1227 669 1227 642 q 1244 736 1227 696 l 1356 1017 l 1560 1017 q 1542 877 1560 935 q 1481 793 1524 819 q 1492 859 1492 835 q 1458 882 1492 882 l 1368 882 l 1321 764 q 1449 714 1407 749 q 1492 627 1492 680 l 1492 203 q 1371 68 1492 136 q 1214 0 1249 0 q 1103 43 1179 0 q 1014 100 1050 73 z "},"ញ":{"ha":1221,"x_min":20,"x_max":1085,"o":"m 271 210 q 332 311 332 270 q 305 339 332 339 l 271 339 l 271 210 m 949 -34 l 949 882 l 868 882 q 678 779 758 882 l 678 102 l 543 -34 l 543 882 l 475 882 q 334 772 414 882 l 338 800 q 342 837 342 821 q 312 882 342 882 l 147 882 l 114 791 q 229 742 186 776 q 271 654 271 707 l 271 441 l 305 441 q 407 339 407 441 q 318 149 407 237 l 199 30 q 153 0 170 0 q 136 27 136 0 l 136 610 q 53 665 136 651 q 20 696 20 669 q 37 764 20 723 l 136 1017 l 339 1017 q 387 929 387 1017 q 495 1017 437 1017 l 678 1017 l 678 882 q 888 1017 777 1017 l 1085 1017 l 1085 102 l 949 -34 m 130 -318 q 122 -296 122 -309 q 174 -200 122 -262 q 366 -115 246 -115 q 663 -217 486 -115 q 912 -319 840 -319 q 983 -288 983 -319 q 956 -231 983 -258 q 861 -203 928 -204 l 963 -102 q 1085 -224 1085 -142 q 1042 -346 1085 -305 q 913 -387 999 -387 q 539 -303 686 -387 q 307 -197 350 -197 q 184 -257 237 -197 l 130 -318 z "},"ដ":{"ha":814,"x_min":88,"x_max":678,"o":"m 271 610 l 271 210 l 407 372 l 543 210 l 543 610 l 678 746 l 678 102 l 627 51 q 559 0 576 0 q 496 56 543 0 l 357 222 l 193 28 q 153 0 170 0 q 136 27 136 0 l 136 610 l 271 610 m 542 765 q 337 689 445 689 q 247 702 293 689 q 88 801 88 745 q 152 928 88 828 q 245 1006 194 985 q 308 1017 275 1017 q 357 1011 332 1017 q 434 967 418 996 q 439 946 439 958 q 420 899 439 925 q 326 854 389 854 q 268 862 300 854 q 273 877 273 870 q 248 899 273 892 q 231 901 239 901 q 196 883 209 901 q 194 878 194 880 q 319 823 194 854 q 418 808 374 808 q 528 842 486 808 q 569 919 569 874 q 549 986 569 949 q 502 1164 502 1076 q 535 1250 502 1209 q 645 1315 568 1291 q 599 1207 599 1255 q 639 1112 600 1181 q 678 971 678 1042 q 542 765 678 871 z "},"ឋ":{"ha":814,"x_min":68,"x_max":787,"o":"m 730 867 q 642 811 682 811 q 625 814 633 811 q 637 859 633 835 l 637 862 q 611 882 637 882 l 554 882 l 507 764 q 635 714 593 749 q 678 627 678 680 l 678 203 q 557 68 678 136 q 400 0 435 0 q 290 43 366 0 q 164 130 206 90 q 100 234 122 170 q 129 257 122 243 q 136 292 136 271 l 136 726 q 267 774 235 735 q 298 850 298 812 q 280 894 298 880 q 237 909 261 909 q 203 878 203 909 q 244 845 203 848 l 244 844 q 163 791 244 791 l 157 791 q 68 882 68 793 q 109 983 68 949 q 203 1017 149 1017 q 329 970 285 1017 q 373 854 373 922 q 346 719 373 780 q 271 610 319 658 l 271 278 q 258 237 271 251 q 355 161 258 214 q 483 106 457 106 q 525 117 509 106 q 543 203 543 126 l 543 583 q 446 637 543 624 q 414 669 414 642 q 431 736 414 696 l 543 1017 l 637 1017 q 684 997 668 1017 q 699 935 699 976 q 726 970 720 949 q 728 984 728 977 q 722 1005 728 996 q 659 1082 706 1031 q 583 1221 583 1165 q 621 1298 583 1261 q 749 1356 659 1335 q 695 1260 695 1303 q 741 1180 696 1230 q 787 1067 787 1130 q 783 1019 787 1041 q 730 867 773 920 z "},"ឌ":{"ha":814,"x_min":136,"x_max":678,"o":"m 543 60 l 515 43 q 407 0 441 0 q 254 68 373 0 q 136 203 136 136 l 136 427 q 407 522 271 427 q 543 678 543 617 l 543 882 l 502 882 q 361 772 441 882 l 366 800 q 369 837 369 821 q 339 882 369 882 l 216 882 q 203 831 203 853 q 214 800 203 812 q 358 731 234 772 q 270 616 330 658 q 165 654 194 633 q 136 772 136 675 q 170 943 136 868 l 203 1017 l 366 1017 q 414 929 414 1017 q 522 1017 465 1017 l 678 1017 l 678 678 q 475 481 678 617 l 271 346 l 271 217 q 449 90 385 90 q 479 98 465 90 l 543 137 l 543 373 l 678 509 l 678 68 l 543 -68 l 543 60 z "},"ឍ":{"ha":1221,"x_min":20,"x_max":1153,"o":"m 545 328 l 509 299 l 545 257 l 545 328 m 271 223 q 323 318 323 283 q 298 339 323 339 l 271 339 l 271 223 m 949 583 q 853 637 949 624 q 821 669 821 642 q 838 736 821 696 l 949 1017 l 1153 1017 q 1135 877 1153 935 q 1074 793 1117 819 q 1085 859 1085 835 q 1051 882 1085 882 l 961 882 l 914 764 q 1042 714 1000 749 q 1085 627 1085 680 l 1085 203 q 1042 51 1085 102 q 912 0 999 0 q 803 60 840 0 q 766 237 766 119 q 745 314 766 288 q 678 339 722 339 l 678 102 l 602 26 q 559 0 576 0 q 543 24 543 0 q 478 142 543 79 q 414 271 414 203 q 448 328 414 305 l 543 393 l 543 882 l 475 882 q 334 772 414 882 l 338 800 q 342 837 342 821 q 312 882 342 882 l 147 882 l 114 791 q 229 742 186 776 q 271 654 271 707 l 271 441 l 298 441 q 375 419 349 441 q 400 353 400 397 q 314 170 400 271 l 199 34 q 153 0 170 0 q 136 27 136 0 l 136 610 q 53 665 136 651 q 20 696 20 669 q 37 764 20 723 l 136 1017 l 339 1017 q 387 929 387 1017 q 495 1017 437 1017 l 678 1017 l 678 407 q 818 365 772 407 q 865 237 865 322 q 912 136 865 136 q 949 203 949 136 l 949 583 z "},"ណ":{"ha":1628,"x_min":20,"x_max":1492,"o":"m 271 210 q 332 311 332 270 q 305 339 332 339 l 271 339 l 271 210 m 543 882 l 147 882 l 114 791 q 229 742 186 776 q 271 654 271 707 l 271 441 l 305 441 q 407 339 407 441 q 318 149 407 237 l 199 30 q 153 0 170 0 q 136 27 136 0 l 136 610 q 53 665 136 651 q 20 696 20 669 q 37 764 20 723 l 136 1017 l 678 1017 l 678 210 l 814 372 l 949 210 l 949 610 q 867 665 949 651 q 834 696 834 669 q 851 764 834 723 l 949 1017 l 1492 1017 l 1492 102 l 1356 -34 l 1356 882 l 961 882 l 928 791 q 1042 742 1000 776 q 1085 654 1085 707 l 1085 102 l 1034 51 q 966 0 983 0 q 903 56 949 0 l 764 222 l 600 28 q 559 0 576 0 q 543 27 543 0 l 543 882 z "},"ត":{"ha":814,"x_min":68,"x_max":712,"o":"m 153 0 q 136 27 136 0 l 136 543 q 254 678 136 610 q 407 746 373 746 q 515 703 441 746 q 678 543 678 610 l 678 102 l 543 -34 l 543 509 q 449 586 543 532 q 330 640 355 640 q 288 629 304 640 q 271 543 271 620 l 271 373 l 305 373 q 382 356 356 373 q 407 306 407 340 q 318 149 407 237 l 199 30 q 153 0 170 0 m 199 678 q 146 731 179 714 q 77 746 117 746 l 68 746 l 203 1017 l 414 1017 q 441 949 441 1017 q 515 1017 485 1017 l 712 1017 q 694 877 712 935 q 620 781 676 819 q 637 859 634 835 l 637 862 q 612 882 637 882 l 488 882 q 400 800 448 882 q 407 846 407 827 q 380 882 407 882 l 202 882 l 186 848 q 267 797 231 829 q 287 760 287 780 q 273 726 287 744 q 199 678 241 688 m 271 210 q 332 288 332 270 q 305 305 332 305 l 271 305 l 271 210 z "},"ថ":{"ha":814,"x_min":20,"x_max":705,"o":"m 543 605 q 495 534 495 558 q 522 509 495 509 l 543 509 l 543 605 m 648 867 q 560 811 601 811 q 543 814 552 811 q 555 859 552 835 l 555 862 q 530 882 555 882 l 147 882 l 114 791 q 229 742 186 776 q 271 654 271 707 l 271 278 q 258 237 271 251 q 355 161 258 214 q 483 106 457 106 q 525 117 509 106 q 543 203 543 126 l 543 407 l 522 407 q 432 434 458 407 q 407 509 407 460 q 496 666 407 577 q 607 746 576 746 q 678 678 678 746 l 678 203 q 557 68 678 136 q 400 0 435 0 q 290 43 366 0 q 164 130 206 90 q 100 234 122 170 q 129 257 122 243 q 136 292 136 271 l 136 610 q 53 665 136 651 q 20 696 20 669 q 37 764 20 723 l 136 1017 l 556 1017 q 602 997 587 1017 q 617 935 617 976 q 645 970 638 949 q 647 984 647 977 q 641 1005 647 996 q 578 1082 625 1031 q 502 1221 502 1165 q 540 1298 502 1261 q 667 1356 578 1335 q 614 1260 614 1303 q 660 1180 614 1230 q 705 1067 705 1130 q 702 1019 705 1041 q 648 867 692 920 z "},"ទ":{"ha":814,"x_min":88,"x_max":699,"o":"m 121 631 l 88 662 q 117 814 88 746 l 203 1017 l 699 1017 q 676 871 699 935 l 642 774 q 526 678 608 678 q 303 764 444 678 l 420 851 q 540 814 483 814 q 612 848 597 814 q 616 865 616 857 q 590 882 616 882 l 215 882 l 170 771 l 229 715 q 399 628 288 658 l 585 577 q 614 573 601 573 q 699 623 664 573 q 646 476 699 519 q 568 443 606 443 q 547 446 557 443 l 500 459 l 360 498 q 121 631 220 537 m 254 495 q 271 461 271 495 l 271 237 q 365 160 271 214 q 484 106 459 106 q 526 117 509 106 q 543 203 543 126 l 543 416 q 559 416 551 416 q 626 431 597 416 q 678 482 661 450 l 678 203 q 559 68 678 136 q 407 0 441 0 q 299 43 373 0 q 136 203 136 136 l 136 393 l 212 470 q 254 495 237 495 z "},"ធ":{"ha":814,"x_min":20,"x_max":705,"o":"m 543 605 q 495 534 495 558 q 522 509 495 509 l 543 509 l 543 605 m 543 407 l 522 407 q 432 434 458 407 q 407 509 407 460 q 496 666 407 577 q 607 746 576 746 q 678 678 678 746 l 678 102 l 627 51 q 559 0 576 0 q 496 56 543 0 l 357 222 l 193 28 q 153 0 170 0 q 136 27 136 0 l 136 610 q 53 665 136 651 q 20 696 20 669 q 37 764 20 723 l 136 1017 l 386 1017 q 413 949 413 1017 q 488 1017 457 1017 l 705 1017 q 687 877 705 935 q 612 781 669 819 q 630 859 627 835 l 630 862 q 604 882 630 882 l 460 882 q 372 800 420 882 q 379 846 379 827 q 352 882 379 882 l 147 882 l 114 791 q 229 742 186 776 q 271 654 271 707 l 271 210 l 407 372 l 543 210 l 543 407 z "},"ន":{"ha":814,"x_min":88,"x_max":699,"o":"m 121 631 l 88 662 q 117 814 88 746 l 203 1017 l 699 1017 q 676 871 699 935 l 642 774 q 526 678 608 678 q 303 764 444 678 l 420 851 q 540 814 483 814 q 612 848 597 814 q 616 865 616 857 q 590 882 616 882 l 215 882 l 170 771 l 229 715 q 399 628 288 658 l 585 577 q 614 573 601 573 q 699 623 664 573 q 646 476 699 519 q 568 443 606 443 q 547 446 557 443 l 500 459 l 360 498 q 121 631 220 537 m 136 393 l 212 470 q 254 495 237 495 q 271 461 271 495 l 271 210 l 407 372 l 543 210 l 543 416 q 559 416 551 416 q 626 431 597 416 q 678 482 661 450 l 678 102 l 627 51 q 559 0 576 0 q 496 56 543 0 l 357 222 l 193 28 q 153 0 170 0 q 136 27 136 0 l 136 393 z "},"ប":{"ha":814,"x_min":7,"x_max":746,"o":"m 678 203 q 557 68 678 136 q 400 0 435 0 q 290 43 366 0 q 164 130 206 90 q 100 234 122 170 q 129 257 122 243 q 136 292 136 271 l 136 583 q 39 637 136 624 q 7 669 7 642 q 24 736 7 696 l 136 1017 l 339 1017 q 321 877 339 935 q 260 793 303 819 q 271 859 271 835 q 237 882 271 882 l 147 882 l 100 764 q 229 714 186 749 q 271 627 271 680 l 271 278 q 258 237 271 251 q 355 161 258 214 q 483 106 457 106 q 525 117 509 106 q 543 203 543 126 l 543 583 q 446 637 543 624 q 414 669 414 642 q 431 736 414 696 l 543 1017 l 746 1017 q 728 877 746 935 q 667 793 710 819 q 678 859 678 835 q 644 882 678 882 l 554 882 l 507 764 q 635 714 593 749 q 678 627 678 680 l 678 203 z "},"ផ":{"ha":814,"x_min":20,"x_max":705,"o":"m 543 605 q 495 534 495 558 q 522 509 495 509 l 543 509 l 543 605 m 648 867 q 560 811 601 811 q 543 814 552 811 q 555 859 552 835 l 555 862 q 530 882 555 882 l 147 882 l 114 791 q 229 742 186 776 q 271 654 271 707 l 271 210 l 407 372 l 543 210 l 543 407 l 522 407 q 432 434 458 407 q 407 509 407 460 q 496 666 407 577 q 607 746 576 746 q 678 678 678 746 l 678 102 l 627 51 q 559 0 576 0 q 496 56 543 0 l 357 222 l 193 28 q 153 0 170 0 q 136 27 136 0 l 136 610 q 53 665 136 651 q 20 696 20 669 q 37 764 20 723 l 136 1017 l 556 1017 q 602 997 587 1017 q 617 935 617 976 q 645 970 638 949 q 647 984 647 977 q 641 1005 647 996 q 578 1082 625 1031 q 502 1221 502 1165 q 540 1298 502 1261 q 667 1356 578 1335 q 614 1260 614 1303 q 660 1180 614 1230 q 705 1067 705 1130 q 702 1019 705 1041 q 648 867 692 920 z "},"ព":{"ha":814,"x_min":20,"x_max":678,"o":"m 271 210 q 332 311 332 270 q 305 339 332 339 l 271 339 l 271 210 m 147 882 l 114 791 q 229 742 186 776 q 271 654 271 707 l 271 441 l 305 441 q 407 339 407 441 q 318 149 407 237 l 199 30 q 153 0 170 0 q 136 27 136 0 l 136 610 q 53 665 136 651 q 20 696 20 669 q 37 764 20 723 l 136 1017 l 339 1017 q 387 929 387 1017 q 495 1017 437 1017 l 678 1017 l 678 102 l 543 -34 l 543 882 l 475 882 q 334 772 414 882 l 338 800 q 342 837 342 821 q 312 882 342 882 l 147 882 z "},"ភ":{"ha":814,"x_min":68,"x_max":712,"o":"m 313 0 q 205 39 273 0 q 136 175 136 79 q 203 298 136 271 q 271 157 203 195 q 334 134 311 134 q 352 140 345 134 q 373 190 373 156 q 343 285 373 241 q 254 362 314 328 q 165 450 195 397 q 136 576 136 504 q 254 678 136 610 q 407 746 373 746 q 515 703 441 746 q 678 543 678 610 l 678 102 l 543 -34 l 543 509 q 449 586 543 532 q 330 640 355 640 q 288 629 304 640 q 271 576 271 620 q 314 484 271 509 q 409 390 377 448 q 441 251 441 332 l 441 190 q 397 58 441 115 q 313 0 353 0 m 199 678 q 146 731 179 714 q 77 746 117 746 l 68 746 l 203 1017 l 414 1017 q 441 949 441 1017 q 515 1017 485 1017 l 712 1017 q 694 877 712 935 q 620 781 676 819 q 637 859 634 835 l 637 862 q 612 882 637 882 l 488 882 q 400 800 448 882 q 407 846 407 827 q 380 882 407 882 l 202 882 l 186 848 q 267 797 231 829 q 287 760 287 780 q 273 726 287 744 q 199 678 241 688 z "},"ម":{"ha":814,"x_min":7,"x_max":746,"o":"m 543 429 l 543 583 q 446 637 543 624 q 414 669 414 642 q 431 736 414 696 l 543 1017 l 746 1017 q 728 877 746 935 q 667 793 710 819 q 678 859 678 835 q 644 882 678 882 l 554 882 l 507 764 q 635 714 593 749 q 678 627 678 680 l 678 203 q 557 68 678 136 q 400 0 435 0 q 290 43 366 0 q 164 130 206 90 q 100 234 122 170 q 129 257 122 243 q 136 292 136 271 l 136 583 q 39 637 136 624 q 7 669 7 642 q 24 736 7 696 l 136 1017 l 339 1017 q 321 877 339 935 q 260 793 303 819 q 271 859 271 835 q 237 882 271 882 l 147 882 l 100 764 q 229 714 186 749 q 271 627 271 680 l 271 456 l 340 543 q 425 450 377 471 q 543 429 469 431 m 271 410 l 271 278 q 258 237 271 251 q 355 161 258 214 q 483 106 457 106 q 525 117 509 106 q 543 203 543 126 l 543 415 q 410 366 467 366 l 404 366 q 271 410 347 368 z "},"យ":{"ha":1221,"x_min":20,"x_max":1153,"o":"m 607 100 q 557 68 585 83 q 400 0 435 0 q 290 43 366 0 q 164 130 206 90 q 100 234 122 170 q 129 257 122 243 q 136 292 136 271 l 136 610 q 47 678 75 624 q 20 800 20 732 q 64 949 20 882 q 203 1017 109 1017 q 305 983 271 1017 q 339 882 339 949 q 251 788 339 814 q 202 780 223 780 q 149 818 158 780 q 203 885 203 861 q 170 909 203 909 q 114 880 132 909 q 95 796 95 852 q 134 750 95 764 q 199 741 156 741 q 271 746 230 741 l 271 278 q 258 237 271 251 q 355 161 258 214 q 483 106 457 106 q 525 117 509 106 q 543 203 543 126 l 543 583 q 446 637 543 624 q 414 669 414 642 q 431 736 414 696 l 543 1017 l 746 1017 q 728 877 746 935 q 667 793 710 819 q 678 859 678 835 q 644 882 678 882 l 554 882 l 507 764 q 635 714 593 749 q 678 627 678 680 l 678 216 q 762 161 701 194 q 890 106 864 106 q 932 117 916 106 q 949 203 949 126 l 949 583 q 853 637 949 624 q 821 669 821 642 q 838 736 821 696 l 949 1017 l 1153 1017 q 1135 877 1153 935 q 1074 793 1117 819 q 1085 859 1085 835 q 1051 882 1085 882 l 961 882 l 914 764 q 1042 714 1000 749 q 1085 627 1085 680 l 1085 203 q 964 68 1085 136 q 807 0 842 0 q 696 43 772 0 q 607 100 644 73 z "},"រ":{"ha":407,"x_min":7,"x_max":339,"o":"m 138 328 l 102 299 l 138 257 l 138 328 m 271 102 l 195 26 q 153 0 170 0 q 136 24 136 0 q 71 142 136 79 q 7 271 7 203 q 41 328 7 305 l 136 393 l 136 583 q 39 637 136 624 q 7 669 7 642 q 24 736 7 696 l 136 1017 l 339 1017 q 321 877 339 935 q 260 793 303 819 q 271 859 271 835 q 237 882 271 882 l 147 882 l 100 764 q 229 714 186 749 q 271 627 271 680 l 271 102 z "},"ល":{"ha":1221,"x_min":20,"x_max":1153,"o":"m 271 210 q 332 311 332 270 q 305 339 332 339 l 271 339 l 271 210 m 678 278 q 665 237 678 251 q 762 161 665 214 q 890 106 864 106 q 932 117 916 106 q 949 203 949 126 l 949 583 q 853 637 949 624 q 821 669 821 642 q 838 736 821 696 l 949 1017 l 1153 1017 q 1135 877 1153 935 q 1074 793 1117 819 q 1085 859 1085 835 q 1051 882 1085 882 l 961 882 l 914 764 q 1042 714 1000 749 q 1085 627 1085 680 l 1085 203 q 964 68 1085 136 q 807 0 842 0 q 696 43 772 0 q 571 130 613 90 q 507 234 529 170 q 536 257 529 243 q 543 292 543 271 l 543 882 l 147 882 l 114 791 q 229 742 186 776 q 271 654 271 707 l 271 441 l 305 441 q 407 339 407 441 q 318 149 407 237 l 199 30 q 153 0 170 0 q 136 27 136 0 l 136 610 q 53 665 136 651 q 20 696 20 669 q 37 764 20 723 l 136 1017 l 678 1017 l 678 278 z "},"វ":{"ha":407,"x_min":7,"x_max":387,"o":"m 138 328 l 102 299 l 138 257 l 138 328 m 322 1005 q 259 1082 306 1031 q 183 1221 183 1165 q 221 1298 183 1261 q 349 1356 259 1335 q 295 1260 295 1303 q 341 1180 296 1230 q 387 1067 387 1130 q 383 1019 387 1041 q 330 867 373 920 q 241 811 282 811 q 224 814 233 811 q 237 859 233 835 l 237 862 q 211 882 237 882 l 147 882 l 100 764 q 229 714 186 749 q 271 627 271 680 l 271 102 l 195 26 q 153 0 170 0 q 136 24 136 0 q 71 142 136 79 q 7 271 7 203 q 41 328 7 305 l 136 393 l 136 583 q 39 637 136 624 q 7 669 7 642 q 24 736 7 696 l 136 1017 l 237 1017 q 283 997 268 1017 q 298 935 298 976 q 326 970 319 949 q 328 984 328 977 q 322 1005 328 996 z "},"ឝ":{"ha":814,"x_min":68,"x_max":787,"o":"m 199 678 q 146 731 179 714 q 77 746 117 746 l 68 746 l 203 1017 l 414 1017 q 441 949 441 1017 q 515 1017 485 1017 l 712 1017 q 694 877 712 935 q 620 781 676 819 q 637 859 634 835 l 637 862 q 612 882 637 882 l 488 882 q 400 800 448 882 q 407 846 407 827 q 380 882 407 882 l 202 882 l 186 848 q 267 797 231 829 q 287 760 287 780 q 273 726 287 744 q 199 678 241 688 m 543 400 l 543 509 q 449 586 543 532 q 330 640 355 640 q 288 629 304 640 q 271 543 271 620 l 271 237 q 381 339 315 339 q 443 315 410 339 q 475 248 475 291 q 407 173 475 203 q 356 203 395 203 q 316 178 337 203 l 191 26 q 153 0 170 0 q 136 27 136 0 l 136 543 q 254 678 136 610 q 407 746 373 746 q 515 703 441 746 q 678 543 678 610 l 678 324 q 779 313 719 313 l 787 313 q 678 257 727 271 l 678 102 l 543 -34 l 543 271 q 469 309 508 286 l 543 400 z "},"ឞ":{"ha":814,"x_min":7,"x_max":787,"o":"m 678 372 l 678 203 q 557 68 678 136 q 400 0 435 0 q 290 43 366 0 q 164 130 206 90 q 100 234 122 170 q 129 257 122 243 q 136 292 136 271 l 136 583 q 39 637 136 624 q 7 669 7 642 q 24 736 7 696 l 136 1017 l 339 1017 q 321 877 339 935 q 260 793 303 819 q 271 859 271 835 q 237 882 271 882 l 147 882 l 100 764 q 229 714 186 749 q 271 627 271 680 l 271 278 q 258 237 271 251 q 355 161 258 214 q 483 106 457 106 q 525 117 509 106 q 543 203 543 126 l 543 387 q 469 425 508 401 l 543 515 l 543 583 q 446 637 543 624 q 414 669 414 642 q 431 736 414 696 l 543 1017 l 746 1017 q 728 877 746 935 q 667 793 710 819 q 678 859 678 835 q 644 882 678 882 l 554 882 l 507 764 q 635 714 593 749 q 678 627 678 680 l 678 439 q 779 429 719 429 l 787 429 q 678 372 727 386 z "},"ស":{"ha":1221,"x_min":75,"x_max":1154,"o":"m 272 210 q 333 288 333 270 q 306 305 333 305 l 272 305 l 272 210 m 231 664 q 184 720 206 700 q 75 746 154 746 l 211 1017 l 665 1017 q 648 877 665 935 q 573 781 629 819 q 591 859 587 835 l 591 862 q 565 882 591 882 l 210 882 l 193 848 q 294 780 254 821 q 336 722 319 753 q 408 746 387 746 q 515 703 441 746 q 679 543 679 610 l 679 278 q 665 237 679 251 q 763 161 665 214 q 890 106 865 106 q 932 117 916 106 q 950 203 950 126 l 950 583 q 854 637 950 624 q 821 669 821 642 q 838 736 821 696 l 950 1017 l 1154 1017 q 1136 877 1154 935 q 1075 793 1118 819 q 1086 859 1086 835 q 1052 882 1086 882 l 962 882 l 915 764 q 1043 714 1000 749 q 1086 627 1086 680 l 1086 203 q 964 68 1086 136 q 808 0 842 0 q 697 43 773 0 q 572 130 614 90 q 508 234 530 170 q 536 257 530 243 q 543 292 543 271 l 543 509 q 450 586 543 532 q 330 640 355 640 q 289 629 305 640 q 272 543 272 620 l 272 373 l 306 373 q 382 356 357 373 q 408 306 408 340 q 319 149 408 237 l 200 30 q 153 0 170 0 q 136 27 136 0 l 136 543 q 231 664 136 603 z "},"ហ":{"ha":1221,"x_min":7,"x_max":1085,"o":"m 678 203 q 557 68 678 136 q 400 0 435 0 q 290 43 366 0 q 164 130 206 90 q 100 234 122 170 q 129 257 122 243 q 136 292 136 271 l 136 583 q 39 637 136 624 q 7 669 7 642 q 24 736 7 696 l 136 1017 l 339 1017 q 321 877 339 935 q 260 793 303 819 q 271 859 271 835 q 237 882 271 882 l 147 882 l 100 764 q 229 714 186 749 q 271 627 271 680 l 271 278 q 258 237 271 251 q 355 161 258 214 q 483 106 457 106 q 525 117 509 106 q 543 203 543 126 l 543 610 q 460 665 543 651 q 427 696 427 669 q 444 764 427 723 l 543 1017 l 1085 1017 l 1085 102 l 949 -34 l 949 882 l 554 882 l 521 791 q 635 742 593 776 q 678 654 678 707 l 678 203 z "},"ឡ":{"ha":1221,"x_min":88,"x_max":1153,"o":"m 543 -197 l 543 -155 l 515 -180 l 543 -197 m 121 631 l 88 662 q 117 814 88 746 l 203 1017 l 699 1017 q 676 871 699 935 l 642 774 q 526 678 608 678 q 303 764 444 678 l 420 851 q 540 814 483 814 q 612 848 597 814 q 616 865 616 857 q 590 882 616 882 l 215 882 l 170 771 l 229 715 q 399 628 288 658 l 585 577 q 614 573 601 573 q 699 623 664 573 q 646 476 699 519 q 568 443 606 443 q 547 446 557 443 l 500 459 l 360 498 q 121 631 220 537 m 949 583 q 853 637 949 624 q 821 669 821 642 q 838 736 821 696 l 949 1017 l 1153 1017 q 1135 877 1153 935 q 1074 793 1117 819 q 1085 859 1085 835 q 1051 882 1085 882 l 961 882 l 914 764 q 1042 714 1000 749 q 1085 627 1085 680 l 1085 -353 l 1034 -397 q 966 -441 983 -441 q 903 -393 949 -441 l 764 -250 l 600 -416 q 559 -441 576 -441 q 543 -417 543 -441 l 543 -278 l 456 -221 q 427 -179 427 -202 q 460 -125 427 -156 l 524 -64 q 597 -34 556 -34 q 678 -68 637 -34 l 678 -261 l 814 -122 l 949 -261 l 949 583 m 271 461 l 271 237 q 365 160 271 214 q 484 106 459 106 q 526 117 509 106 q 543 203 543 126 l 543 416 q 559 416 551 416 q 626 431 597 416 q 678 482 661 450 l 678 203 q 559 68 678 136 q 407 0 441 0 q 299 43 373 0 q 136 203 136 136 l 136 393 l 212 470 q 254 495 237 495 q 271 461 271 495 z "},"អ":{"ha":814,"x_min":7,"x_max":746,"o":"m 138 328 l 102 299 l 138 257 l 138 328 m 545 328 l 509 299 l 545 257 l 545 328 m 271 457 l 271 102 l 195 26 q 153 0 170 0 q 136 24 136 0 q 71 142 136 79 q 7 271 7 203 q 41 328 7 305 l 136 393 l 136 583 q 39 637 136 624 q 7 669 7 642 q 24 736 7 696 l 136 1017 l 339 1017 q 321 877 339 935 q 260 793 303 819 q 271 859 271 835 q 237 882 271 882 l 147 882 l 100 764 q 229 714 186 749 q 271 627 271 680 l 271 504 l 340 590 q 425 497 377 519 q 543 476 469 478 l 543 583 q 446 637 543 624 q 414 669 414 642 q 431 736 414 696 l 543 1017 l 746 1017 q 728 877 746 935 q 667 793 710 819 q 678 859 678 835 q 644 882 678 882 l 554 882 l 507 764 q 635 714 593 749 q 678 627 678 680 l 678 102 l 602 26 q 559 0 576 0 q 543 24 543 0 q 478 142 543 79 q 414 271 414 203 q 448 328 414 305 l 543 393 l 543 463 q 410 413 467 413 l 404 413 q 271 457 347 415 z "},"ឣ":{"ha":814,"x_min":7,"x_max":746,"o":"m 138 328 l 102 299 l 138 257 l 138 328 m 545 328 l 509 299 l 545 257 l 545 328 m 271 457 l 271 102 l 195 26 q 153 0 170 0 q 136 24 136 0 q 71 142 136 79 q 7 271 7 203 q 41 328 7 305 l 136 393 l 136 583 q 39 637 136 624 q 7 669 7 642 q 24 736 7 696 l 136 1017 l 339 1017 q 321 877 339 935 q 260 793 303 819 q 271 859 271 835 q 237 882 271 882 l 147 882 l 100 764 q 229 714 186 749 q 271 627 271 680 l 271 504 l 340 590 q 425 497 377 519 q 543 476 469 478 l 543 583 q 446 637 543 624 q 414 669 414 642 q 431 736 414 696 l 543 1017 l 746 1017 q 728 877 746 935 q 667 793 710 819 q 678 859 678 835 q 644 882 678 882 l 554 882 l 507 764 q 635 714 593 749 q 678 627 678 680 l 678 102 l 602 26 q 559 0 576 0 q 543 24 543 0 q 478 142 543 79 q 414 271 414 203 q 448 328 414 305 l 543 393 l 543 463 q 410 413 467 413 l 404 413 q 271 457 347 415 z "},"ឤ":{"ha":1221,"x_min":7,"x_max":1085,"o":"m 138 328 l 102 299 l 138 257 l 138 328 m 545 328 l 509 299 l 545 257 l 545 328 m 271 457 l 271 102 l 195 26 q 153 0 170 0 q 136 24 136 0 q 71 142 136 79 q 7 271 7 203 q 41 328 7 305 l 136 393 l 136 583 q 39 637 136 624 q 7 669 7 642 q 24 736 7 696 l 136 1017 l 339 1017 q 321 877 339 935 q 260 793 303 819 q 271 859 271 835 q 237 882 271 882 l 147 882 l 100 764 q 229 714 186 749 q 271 627 271 680 l 271 504 l 340 590 q 425 497 377 519 q 543 476 469 478 l 543 583 q 446 637 543 624 q 414 669 414 642 q 431 736 414 696 l 543 1017 l 1085 1017 l 1085 102 l 949 -34 l 949 882 l 554 882 l 507 764 q 635 714 593 749 q 678 627 678 680 l 678 102 l 602 26 q 559 0 576 0 q 543 24 543 0 q 478 142 543 79 q 414 271 414 203 q 448 328 414 305 l 543 393 l 543 463 q 410 413 467 413 l 404 413 q 271 457 347 415 z "},"ឥ":{"ha":814,"x_min":68,"x_max":705,"o":"m 136 27 l 136 543 q 254 678 136 610 q 407 746 373 746 q 515 703 441 746 q 678 543 678 610 l 678 102 l 543 -34 l 543 509 q 449 586 543 532 q 330 640 355 640 q 288 629 304 640 q 271 543 271 620 l 271 373 l 305 373 q 382 356 356 373 q 407 306 407 340 q 318 149 407 237 l 199 30 q 153 0 170 0 q 136 27 136 0 m 271 210 q 332 288 332 270 q 305 305 332 305 l 271 305 l 271 210 m 202 882 l 186 848 q 267 797 231 829 q 287 760 287 780 q 273 726 287 744 q 199 678 241 688 q 146 731 179 714 q 77 746 117 746 l 68 746 l 203 1017 l 556 1017 q 602 997 587 1017 q 617 935 617 976 q 649 987 645 963 l 649 990 q 578 1126 649 1018 q 502 1300 502 1241 q 540 1407 502 1356 q 667 1488 578 1457 q 614 1354 614 1414 q 660 1243 614 1313 q 705 1085 705 1173 q 648 867 705 936 q 560 811 601 811 q 543 814 552 811 q 555 859 552 835 l 555 862 q 530 882 555 882 l 202 882 z "},"ឦ":{"ha":1221,"x_min":136,"x_max":1200,"o":"m 271 -435 q 332 -357 332 -374 q 305 -339 332 -339 l 271 -339 l 271 -435 m 271 210 q 332 311 332 270 q 305 339 332 339 l 271 339 l 271 210 m 543 -305 q 449 -228 543 -282 q 330 -174 355 -174 q 288 -184 304 -174 q 271 -237 271 -194 l 271 -271 l 305 -271 q 382 -288 356 -271 q 407 -338 407 -304 q 318 -496 407 -407 q 203 -543 271 -543 q 136 -475 136 -543 l 136 -237 q 254 -136 136 -203 q 407 -68 373 -68 q 515 -111 441 -68 q 678 -271 678 -203 l 678 -339 q 838 -475 726 -475 q 949 -339 949 -475 l 949 583 q 853 637 949 624 q 821 669 821 642 q 838 736 821 696 l 949 1017 l 1051 1017 q 1097 997 1082 1017 q 1112 935 1112 976 q 1144 987 1140 963 l 1144 990 q 1073 1126 1144 1018 q 997 1300 997 1241 q 1035 1407 997 1356 q 1162 1488 1073 1457 q 1109 1354 1109 1414 q 1155 1243 1109 1313 q 1200 1085 1200 1173 q 1143 867 1200 936 q 1055 811 1096 811 q 1038 814 1047 811 q 1050 859 1047 835 l 1050 862 q 1025 882 1050 882 l 961 882 l 914 764 q 1042 714 1000 749 q 1085 627 1085 680 l 1085 -339 q 814 -543 1085 -543 q 648 -492 723 -543 l 543 -556 l 543 -305 m 136 814 q 254 949 136 882 q 407 1017 373 1017 q 515 975 441 1017 q 678 814 678 882 l 678 102 l 543 -34 l 543 780 q 449 857 543 803 q 330 911 355 911 q 288 901 304 911 q 271 814 271 891 l 271 441 l 305 441 q 407 339 407 441 q 318 149 407 237 l 199 30 q 153 0 170 0 q 136 27 136 0 l 136 814 z "},"ឧ":{"ha":814,"x_min":121,"x_max":678,"o":"m 271 682 q 317 720 317 707 q 294 739 317 739 l 271 739 l 271 682 m 136 427 q 407 522 271 427 q 543 678 543 617 l 543 780 q 449 857 543 803 q 330 911 355 911 q 288 901 304 911 q 271 814 271 891 l 298 814 q 407 743 407 814 q 305 607 407 671 q 166 543 203 543 q 136 597 136 543 l 136 814 q 254 949 136 882 q 407 1017 373 1017 q 515 975 441 1017 q 678 814 678 882 l 678 678 q 475 481 678 617 l 271 346 l 271 217 q 449 90 385 90 q 479 98 465 90 l 543 137 l 543 373 l 678 509 l 678 -41 q 542 -191 678 -113 q 416 -236 474 -230 q 395 -237 406 -237 q 313 -216 351 -237 q 220 -186 266 -189 l 216 -186 q 122 -246 172 -186 q 121 -225 121 -235 q 126 -186 121 -203 q 171 -122 134 -159 q 262 -73 208 -84 q 293 -69 277 -69 q 373 -93 333 -69 q 497 -144 460 -144 q 513 -140 507 -144 q 543 -75 543 -123 l 543 60 l 515 43 q 407 0 441 0 q 254 68 373 0 q 136 203 136 136 l 136 427 z "},"ឨ":{"ha":814,"x_min":68,"x_max":712,"o":"m 271 682 q 317 720 317 707 q 294 739 317 739 l 271 739 l 271 682 m 136 427 q 407 522 271 427 q 543 678 543 617 l 543 780 q 449 857 543 803 q 330 911 355 911 q 288 901 304 911 q 271 814 271 891 l 298 814 q 407 743 407 814 q 305 607 407 671 q 166 543 203 543 q 136 597 136 543 l 136 814 q 254 949 136 882 q 407 1017 373 1017 q 515 975 441 1017 q 678 814 678 882 l 678 678 q 475 481 678 617 l 271 346 l 271 217 q 449 90 385 90 q 479 98 465 90 l 543 137 l 543 373 l 678 509 l 678 -41 q 542 -191 678 -113 q 416 -236 474 -230 q 395 -237 406 -237 q 313 -216 351 -237 q 220 -186 266 -189 l 216 -186 q 122 -246 172 -186 q 121 -226 121 -235 q 126 -186 121 -204 q 171 -122 134 -159 q 262 -73 208 -84 q 293 -69 277 -69 q 373 -93 333 -69 q 497 -144 460 -144 q 513 -140 507 -144 q 543 -75 543 -123 l 543 60 l 515 43 q 407 0 441 0 q 254 68 373 0 q 136 203 136 136 l 136 427 m 199 943 q 146 996 179 979 q 77 1010 117 1010 l 68 1010 l 203 1282 l 414 1282 q 441 1214 441 1282 q 515 1282 485 1282 l 712 1282 q 694 1141 712 1199 q 620 1045 676 1083 q 637 1123 634 1099 l 637 1126 q 612 1146 637 1146 l 488 1146 q 400 1065 448 1146 q 407 1110 407 1092 q 380 1146 407 1146 l 202 1146 l 186 1112 q 267 1061 231 1094 q 287 1025 287 1044 q 273 991 287 1008 q 199 943 241 953 z "},"ឩ":{"ha":913,"x_min":121,"x_max":882,"o":"m 271 682 q 317 720 317 707 q 294 739 317 739 l 271 739 l 271 682 m 136 427 q 407 522 271 427 q 543 678 543 617 l 543 780 q 449 857 543 803 q 330 911 355 911 q 288 901 304 911 q 271 814 271 891 l 298 814 q 407 743 407 814 q 305 607 407 671 q 166 543 203 543 q 136 597 136 543 l 136 814 q 254 949 136 882 q 407 1017 373 1017 q 515 975 441 1017 q 678 814 678 882 l 678 678 q 475 481 678 617 l 271 346 l 271 217 q 449 90 385 90 q 479 98 465 90 l 543 137 l 543 373 l 678 509 l 678 -41 q 542 -191 678 -113 q 416 -236 474 -230 q 395 -237 406 -237 q 313 -216 351 -237 q 220 -186 266 -189 l 216 -186 q 122 -246 172 -186 q 121 -225 121 -235 q 126 -186 121 -203 q 171 -122 134 -159 q 262 -73 208 -84 q 293 -69 277 -69 q 373 -93 333 -69 q 497 -144 460 -144 q 513 -140 507 -144 q 543 -75 543 -123 l 543 60 l 515 43 q 407 0 441 0 q 254 68 373 0 q 136 203 136 136 l 136 427 m 746 407 l 882 543 l 882 -68 l 746 -203 l 746 407 z "},"ឪ":{"ha":814,"x_min":68,"x_max":705,"o":"m 271 682 q 317 720 317 707 q 294 739 317 739 l 271 739 l 271 682 m 136 427 q 407 522 271 427 q 543 678 543 617 l 543 780 q 449 857 543 803 q 330 911 355 911 q 288 901 304 911 q 271 814 271 891 l 298 814 q 407 743 407 814 q 305 607 407 671 q 166 543 203 543 q 136 597 136 543 l 136 814 q 254 949 136 882 q 407 1017 373 1017 q 515 975 441 1017 q 678 814 678 882 l 678 678 q 475 481 678 617 l 271 346 l 271 217 q 449 90 385 90 q 479 98 465 90 l 543 137 l 543 373 l 678 509 l 678 -41 q 542 -191 678 -113 q 416 -236 474 -230 q 395 -237 406 -237 q 313 -216 351 -237 q 220 -186 266 -189 l 216 -186 q 122 -246 172 -186 q 121 -226 121 -235 q 126 -186 121 -204 q 171 -122 134 -159 q 262 -73 208 -84 q 293 -69 277 -69 q 373 -93 333 -69 q 497 -144 460 -144 q 513 -140 507 -144 q 543 -75 543 -123 l 543 60 l 515 43 q 407 0 441 0 q 254 68 373 0 q 136 203 136 136 l 136 427 m 202 1153 l 186 1119 q 267 1068 231 1101 q 287 1031 287 1051 q 273 998 287 1015 q 199 949 241 960 q 146 1002 179 985 q 77 1017 117 1017 l 68 1017 l 203 1289 l 556 1289 q 602 1268 587 1289 q 617 1206 617 1247 q 649 1258 645 1234 l 649 1261 q 578 1397 649 1289 q 502 1571 502 1512 q 540 1678 502 1628 q 667 1759 578 1729 q 614 1625 614 1685 q 660 1514 614 1584 q 705 1356 705 1444 q 648 1139 705 1207 q 560 1082 601 1082 q 543 1085 552 1082 q 555 1130 552 1106 l 555 1133 q 530 1153 555 1153 l 202 1153 z "},"ឫ":{"ha":814,"x_min":7,"x_max":746,"o":"m 678 203 q 557 68 678 136 q 400 0 435 0 q 290 43 366 0 q 164 130 206 90 q 100 234 122 170 q 129 257 122 243 q 136 292 136 271 l 136 583 q 39 637 136 624 q 7 669 7 642 q 24 736 7 696 l 136 1017 l 339 1017 q 321 877 339 935 q 260 793 303 819 q 271 859 271 835 q 237 882 271 882 l 147 882 l 100 764 q 229 714 186 749 q 271 627 271 680 l 271 278 q 258 237 271 251 q 355 161 258 214 q 483 106 457 106 q 525 117 509 106 q 543 203 543 126 l 543 583 q 446 637 543 624 q 414 669 414 642 q 431 736 414 696 l 543 1017 l 746 1017 q 728 877 746 935 q 667 793 710 819 q 678 859 678 835 q 644 882 678 882 l 554 882 l 507 764 q 635 714 593 749 q 678 627 678 680 l 678 203 m 92 -329 q 68 -250 68 -306 q 67 -250 67 -250 q 160 -149 67 -195 q 279 -122 215 -122 q 370 -135 323 -122 q 578 -178 526 -178 q 605 -167 605 -178 q 574 -121 605 -136 q 547 -115 564 -115 q 454 -136 513 -115 l 563 0 q 649 -29 621 0 q 678 -115 678 -58 q 571 -266 678 -228 q 457 -285 517 -285 q 336 -267 399 -285 q 159 -229 205 -229 q 140 -232 146 -229 q 92 -329 108 -245 z "},"ឬ":{"ha":814,"x_min":7,"x_max":841,"o":"m 678 203 q 557 68 678 136 q 400 0 435 0 q 290 43 366 0 q 164 130 206 90 q 100 234 122 170 q 129 257 122 243 q 136 292 136 271 l 136 583 q 39 637 136 624 q 7 669 7 642 q 24 736 7 696 l 136 1017 l 339 1017 q 321 877 339 935 q 260 793 303 819 q 271 859 271 835 q 237 882 271 882 l 147 882 l 100 764 q 229 714 186 749 q 271 627 271 680 l 271 278 q 258 237 271 251 q 355 161 258 214 q 483 106 457 106 q 525 117 509 106 q 543 203 543 126 l 543 583 q 446 637 543 624 q 414 669 414 642 q 431 736 414 696 l 543 1017 l 746 1017 q 728 877 746 935 q 667 793 710 819 q 678 859 678 835 q 644 882 678 882 l 554 882 l 507 764 q 635 714 593 749 q 678 627 678 680 l 678 203 m 559 -269 q 456 -285 510 -285 q 336 -267 399 -285 q 159 -229 205 -229 q 140 -232 146 -229 q 92 -329 108 -245 q 68 -250 68 -306 q 67 -250 67 -250 q 160 -149 67 -195 q 279 -122 215 -122 q 370 -135 323 -122 q 578 -178 526 -178 q 605 -167 605 -178 q 574 -121 605 -136 q 547 -115 564 -115 q 454 -136 513 -115 l 563 0 q 649 -29 621 0 q 678 -115 678 -58 q 663 -189 678 -157 q 712 -261 682 -237 q 841 -313 754 -293 q 714 -343 768 -343 q 672 -338 691 -343 q 559 -269 620 -323 z "},"ឭ":{"ha":814,"x_min":20,"x_max":678,"o":"m 271 210 q 332 311 332 270 q 305 339 332 339 l 271 339 l 271 210 m 543 -25 l 543 882 l 475 882 q 334 772 414 882 l 338 800 q 342 837 342 821 q 312 882 342 882 l 147 882 l 114 791 q 229 742 186 776 q 271 654 271 707 l 271 441 l 305 441 q 407 339 407 441 q 318 149 407 237 l 199 30 q 153 0 170 0 q 136 27 136 0 l 136 610 q 53 665 136 651 q 20 696 20 669 q 37 764 20 723 l 136 1017 l 339 1017 q 387 929 387 1017 q 495 1017 437 1017 l 678 1017 l 678 102 l 576 0 q 649 -29 624 -3 q 678 -115 678 -58 q 571 -266 678 -228 q 457 -285 517 -285 q 336 -267 399 -285 q 159 -229 205 -229 q 140 -232 146 -229 q 92 -329 108 -245 q 68 -250 68 -306 q 67 -250 67 -250 q 160 -149 67 -195 q 279 -122 215 -122 q 370 -135 323 -122 q 578 -178 526 -178 q 605 -167 605 -178 q 574 -121 605 -136 q 547 -115 564 -115 q 454 -136 513 -115 l 543 -25 z "},"ឮ":{"ha":814,"x_min":20,"x_max":841,"o":"m 271 210 q 332 311 332 270 q 305 339 332 339 l 271 339 l 271 210 m 543 -25 l 543 882 l 475 882 q 334 772 414 882 l 338 800 q 342 837 342 821 q 312 882 342 882 l 147 882 l 114 791 q 229 742 186 776 q 271 654 271 707 l 271 441 l 305 441 q 407 339 407 441 q 318 149 407 237 l 199 30 q 153 0 170 0 q 136 27 136 0 l 136 610 q 53 665 136 651 q 20 696 20 669 q 37 764 20 723 l 136 1017 l 339 1017 q 387 929 387 1017 q 495 1017 437 1017 l 678 1017 l 678 102 l 576 0 q 649 -29 624 -3 q 678 -115 678 -58 q 663 -189 678 -157 q 712 -261 682 -237 q 841 -313 754 -293 q 714 -343 768 -343 q 672 -338 691 -343 q 559 -269 620 -323 q 456 -285 510 -285 q 336 -267 399 -285 q 159 -229 205 -229 q 140 -232 146 -229 q 92 -329 108 -245 q 68 -250 68 -306 q 67 -250 67 -250 q 160 -149 67 -195 q 279 -122 215 -122 q 370 -135 323 -122 q 578 -178 526 -178 q 605 -167 605 -178 q 574 -121 605 -136 q 547 -115 564 -115 q 454 -136 513 -115 l 543 -25 z "},"ឯ":{"ha":814,"x_min":20,"x_max":678,"o":"m 136 433 l 136 482 l 109 454 l 136 433 m 136 1133 q 119 1160 136 1160 q 68 1139 103 1160 q 190 1289 136 1289 q 271 1133 271 1289 l 271 959 q 407 1017 376 1017 q 515 975 441 1017 q 678 814 678 882 l 678 102 l 627 51 q 559 0 576 0 q 496 56 543 0 l 357 222 l 193 28 q 153 0 170 0 q 136 27 136 0 l 136 346 l 50 412 q 20 468 20 434 q 53 572 20 536 l 117 643 q 190 678 149 678 q 271 637 230 678 l 271 210 l 407 372 l 543 210 l 543 780 q 449 857 543 803 q 330 911 355 911 q 288 901 304 911 q 271 848 271 891 q 203 776 271 776 q 136 848 136 776 l 136 1133 z "},"ឰ":{"ha":814,"x_min":20,"x_max":678,"o":"m 271 210 q 332 311 332 270 q 305 339 332 339 l 271 339 l 271 210 m 147 882 l 114 791 q 229 742 186 776 q 271 654 271 707 l 271 441 l 305 441 q 407 339 407 441 q 318 149 407 237 l 199 30 q 153 0 170 0 q 136 27 136 0 l 136 610 q 53 665 136 651 q 20 696 20 669 q 37 764 20 723 l 136 1017 l 339 1017 q 387 929 387 1017 q 495 1017 437 1017 l 678 1017 l 678 102 l 543 -34 l 543 882 l 475 882 q 334 772 414 882 l 338 800 q 342 837 342 821 q 312 882 342 882 l 147 882 m 678 -203 q 656 -308 678 -264 q 591 -377 635 -351 q 530 -398 556 -398 q 518 -397 524 -398 q 471 -353 488 -391 q 445 -437 470 -401 q 371 -494 420 -472 q 321 -507 347 -505 l 310 -507 q 271 -502 290 -507 q 170 -438 221 -488 q 136 -330 136 -405 q 237 -224 136 -254 l 467 -157 q 610 -68 543 -136 l 678 0 l 678 -203 m 221 -374 q 328 -433 290 -433 q 343 -429 336 -433 q 371 -368 371 -417 q 368 -334 371 -353 l 221 -374 m 509 -294 q 540 -327 523 -327 q 549 -325 544 -327 q 562 -300 562 -318 q 557 -272 562 -288 l 509 -294 z "},"ឱ":{"ha":814,"x_min":68,"x_max":712,"o":"m 271 682 q 317 720 317 707 q 294 739 317 739 l 271 739 l 271 682 m 136 427 q 407 522 271 427 q 543 678 543 617 l 543 780 q 449 857 543 803 q 330 911 355 911 q 288 901 304 911 q 271 814 271 891 l 298 814 q 407 743 407 814 q 305 607 407 671 q 166 543 203 543 q 136 597 136 543 l 136 814 q 254 949 136 882 q 407 1017 373 1017 q 515 975 441 1017 q 678 814 678 882 l 678 678 q 475 481 678 617 l 271 346 l 271 217 q 449 90 385 90 q 479 98 465 90 l 543 137 l 543 373 l 678 509 l 678 -41 q 542 -191 678 -113 q 416 -236 474 -230 q 395 -237 406 -237 q 313 -216 351 -237 q 220 -186 266 -189 l 216 -186 q 122 -246 172 -186 q 121 -226 121 -235 q 126 -186 121 -204 q 171 -122 134 -159 q 262 -73 208 -84 q 293 -69 277 -69 q 373 -93 333 -69 q 497 -144 460 -144 q 513 -140 507 -144 q 543 -75 543 -123 l 543 60 l 515 43 q 407 0 441 0 q 254 68 373 0 q 136 203 136 136 l 136 427 m 199 943 q 146 996 179 979 q 77 1010 117 1010 l 68 1010 l 203 1282 l 712 1282 q 694 1141 712 1199 q 620 1045 676 1083 q 637 1123 634 1099 l 637 1126 q 612 1146 637 1146 l 202 1146 l 186 1112 q 267 1061 231 1094 q 287 1025 287 1044 q 273 991 287 1008 q 199 943 241 953 z "},"ឲ":{"ha":814,"x_min":136,"x_max":678,"o":"m 543 359 q 678 203 678 339 q 559 68 678 136 q 407 0 441 0 q 299 43 373 0 q 136 203 136 136 l 136 814 q 254 949 136 882 q 407 1017 373 1017 q 515 975 441 1017 l 678 882 l 543 803 l 449 857 q 330 911 355 911 q 288 901 304 911 q 271 814 271 891 l 271 237 q 365 160 271 214 q 484 106 459 106 q 526 117 509 106 q 543 203 543 126 q 492 310 543 279 q 441 391 441 340 l 441 441 q 572 503 540 464 q 604 579 604 541 q 585 623 604 608 q 543 637 566 637 q 509 607 509 637 q 549 574 509 576 l 549 573 q 468 520 549 520 l 462 520 q 373 610 373 522 q 414 712 373 678 q 509 746 454 746 q 634 699 590 746 q 678 583 678 651 q 651 448 678 509 q 543 359 624 387 z "},"ឳ":{"ha":814,"x_min":68,"x_max":705,"o":"m 271 682 q 317 720 317 707 q 294 739 317 739 l 271 739 l 271 682 m 136 427 q 407 522 271 427 q 543 678 543 617 l 543 780 q 449 857 543 803 q 330 911 355 911 q 288 901 304 911 q 271 814 271 891 l 298 814 q 407 743 407 814 q 305 607 407 671 q 166 543 203 543 q 136 597 136 543 l 136 814 q 254 949 136 882 q 407 1017 373 1017 q 515 975 441 1017 q 678 814 678 882 l 678 678 q 475 481 678 617 l 271 346 l 271 217 q 449 90 385 90 q 479 98 465 90 l 543 137 l 543 373 l 678 509 l 678 -41 q 542 -191 678 -113 q 416 -236 474 -230 q 395 -237 406 -237 q 313 -216 351 -237 q 220 -186 266 -189 l 216 -186 q 122 -246 172 -186 q 121 -226 121 -235 q 126 -186 121 -204 q 171 -122 134 -159 q 262 -73 208 -84 q 293 -69 277 -69 q 373 -93 333 -69 q 497 -144 460 -144 q 513 -140 507 -144 q 543 -75 543 -123 l 543 60 l 515 43 q 407 0 441 0 q 254 68 373 0 q 136 203 136 136 l 136 427 m 202 1153 l 186 1119 q 267 1068 231 1101 q 287 1031 287 1051 q 273 998 287 1015 q 199 949 241 960 q 146 1002 179 985 q 77 1017 117 1017 l 68 1017 l 203 1289 l 556 1289 q 602 1268 587 1289 q 617 1206 617 1247 q 649 1258 645 1234 l 649 1261 q 578 1397 649 1289 q 502 1571 502 1512 q 540 1678 502 1628 q 667 1759 578 1729 q 614 1625 614 1685 q 660 1514 614 1584 q 705 1356 705 1444 q 648 1139 705 1207 q 560 1082 601 1082 q 543 1085 552 1082 q 555 1130 552 1106 l 555 1133 q 530 1153 555 1153 l 202 1153 z "},"ា":{"ha":407,"x_min":-102,"x_max":271,"o":"m -102 882 q -85 983 -102 949 q -34 1017 -68 1017 l 271 1017 l 271 102 l 136 -34 l 136 882 l -102 882 z "},"ិ":{"ha":0,"x_min":-677,"x_max":-90,"o":"m -580 1270 q -435 1333 -513 1326 q -421 1334 -429 1334 q -151 1269 -340 1334 l -141 1284 l -288 1358 q -427 1390 -361 1390 l -439 1390 q -580 1270 -511 1388 m -653 1260 q -568 1437 -616 1374 q -458 1512 -519 1500 q -389 1518 -423 1518 q -338 1514 -363 1518 q -193 1463 -279 1506 q -93 1362 -106 1416 q -90 1335 -90 1348 q -120 1263 -90 1297 l -202 1153 l -287 1176 q -511 1213 -414 1211 l -523 1213 q -677 1183 -613 1213 l -653 1260 z "},"ី":{"ha":0,"x_min":-677,"x_max":0,"o":"m -580 1270 q -435 1333 -513 1326 q -421 1334 -429 1334 q -151 1269 -340 1334 l -141 1284 l -288 1358 q -427 1390 -361 1390 l -439 1390 q -580 1270 -511 1388 m -101 1287 l -202 1153 l -287 1176 q -511 1213 -414 1211 l -523 1213 q -677 1183 -613 1213 l -653 1260 q -568 1437 -616 1374 q -458 1512 -519 1500 q -389 1518 -424 1518 q -338 1514 -363 1518 q -193 1463 -279 1506 q -93 1362 -106 1416 q -68 1427 -68 1406 q -96 1487 -68 1451 l -33 1580 l -16 1552 q 0 1473 0 1524 q -101 1287 0 1421 z "},"ឹ":{"ha":0,"x_min":-677,"x_max":0,"o":"m -580 1270 q -435 1333 -513 1326 q -421 1334 -429 1334 q -151 1269 -340 1334 l -141 1284 l -288 1358 q -427 1390 -361 1390 l -439 1390 q -580 1270 -511 1388 m -91 1355 q -89 1335 -89 1345 q -120 1263 -89 1297 l -202 1153 l -287 1176 q -511 1213 -414 1211 l -523 1213 q -677 1183 -613 1213 l -653 1260 q -568 1437 -616 1374 q -458 1512 -519 1500 q -389 1518 -424 1518 q -338 1514 -363 1518 q -332 1514 -335 1514 q -310 1582 -329 1549 q -248 1643 -288 1622 q -166 1664 -208 1664 q -85 1643 -125 1664 q -23 1582 -45 1622 q 0 1500 0 1543 q -22 1419 0 1458 q -83 1360 -44 1381 q -91 1355 -87 1357 m -130 1537 q -206 1584 -175 1575 q -227 1587 -217 1587 q -256 1575 -243 1587 q -266 1552 -266 1565 q -260 1531 -266 1541 q -203 1467 -248 1503 q -127 1421 -157 1430 q -106 1418 -116 1418 q -77 1430 -90 1418 q -67 1453 -67 1440 q -73 1474 -67 1463 q -130 1537 -85 1501 z "},"ឺ":{"ha":0,"x_min":-677,"x_max":0,"o":"m -580 1270 q -435 1333 -513 1326 q -421 1334 -429 1334 q -151 1269 -340 1334 l -141 1284 l -288 1358 q -427 1390 -361 1390 l -439 1390 q -580 1270 -511 1388 m -183 1458 q -93 1362 -105 1413 q -68 1427 -68 1406 q -96 1487 -68 1451 l -33 1580 l -16 1552 q 0 1473 0 1524 q -101 1287 0 1421 l -202 1153 l -287 1176 q -511 1213 -414 1211 l -523 1213 q -677 1183 -613 1213 l -653 1260 q -568 1437 -616 1374 q -458 1512 -519 1500 q -389 1518 -424 1518 q -338 1514 -363 1518 q -218 1475 -288 1508 q -203 1522 -203 1506 q -232 1581 -203 1546 l -168 1675 l -152 1647 q -136 1568 -136 1619 q -183 1458 -136 1533 z "},"ុ":{"ha":0,"x_min":-271,"x_max":-136,"o":"m -136 -339 l -271 -475 l -271 -170 l -136 -34 l -136 -339 z "},"ូ":{"ha":0,"x_min":-570,"x_max":-95,"o":"m -461 -197 l -461 -172 q -490 -197 -490 -188 q -488 -200 -490 -199 q -480 -204 -486 -204 q -461 -197 -473 -204 m -359 -448 q -427 -420 -393 -448 q -461 -365 -461 -392 l -461 -250 q -498 -258 -481 -258 q -536 -247 -519 -258 q -570 -200 -570 -227 q -509 -117 -570 -172 q -407 -62 -448 -62 q -326 -96 -367 -62 l -326 -376 q -251 -346 -271 -365 q -231 -282 -231 -326 q -251 -227 -231 -255 q -271 -148 -271 -200 q -237 -90 -271 -117 q -137 -41 -204 -63 q -183 -120 -183 -90 q -139 -189 -183 -156 q -95 -282 -95 -222 q -203 -384 -95 -321 q -359 -448 -311 -448 z "},"ួ":{"ha":0,"x_min":-610,"x_max":-83,"o":"m -502 -197 l -502 -172 q -530 -197 -530 -188 q -529 -200 -530 -199 q -521 -204 -526 -204 q -502 -197 -513 -204 m -423 -448 q -471 -420 -441 -448 q -502 -365 -502 -392 l -502 -250 q -539 -258 -522 -258 q -577 -247 -559 -258 q -610 -200 -610 -227 q -549 -117 -610 -172 q -448 -62 -488 -62 q -380 -96 -421 -62 l -380 -332 l -313 -268 l -199 -359 q -184 -313 -184 -349 q -222 -244 -184 -277 q -259 -148 -259 -211 q -225 -90 -259 -117 q -125 -41 -192 -63 q -171 -120 -171 -90 q -127 -189 -171 -156 q -83 -288 -83 -222 q -138 -401 -83 -354 q -222 -448 -193 -448 q -293 -412 -251 -448 l -336 -377 l -393 -430 q -423 -448 -413 -448 z "},"ើ":{"ha":0,"x_min":-677,"x_max":0,"o":"m -580 1270 q -435 1333 -513 1326 q -421 1334 -429 1334 q -151 1269 -340 1334 l -141 1284 l -288 1358 q -427 1390 -361 1390 l -439 1390 q -580 1270 -511 1388 m -101 1287 l -202 1153 l -287 1176 q -511 1213 -414 1211 l -523 1213 q -677 1183 -613 1213 l -653 1260 q -568 1437 -616 1374 q -458 1512 -519 1500 q -389 1518 -424 1518 q -338 1514 -363 1518 q -193 1463 -279 1506 q -93 1362 -106 1416 q -68 1427 -68 1406 q -96 1487 -68 1451 l -33 1580 l -16 1552 q 0 1473 0 1524 q -101 1287 0 1421 z "},"ឿ":{"ha":407,"x_min":-340,"x_max":338,"o":"m -98 1450 q -81 1451 -90 1451 q 186 1404 0 1451 l 197 1415 l 50 1468 q -88 1491 -24 1491 l -102 1491 q -242 1404 -173 1489 q -98 1450 -176 1445 m 271 -339 q 153 -475 271 -407 q 0 -543 34 -543 q -108 -500 -34 -543 q -271 -339 -271 -407 l -271 -237 l -195 -161 q -153 -136 -170 -136 q -136 -170 -136 -136 l -136 -305 q -42 -382 -136 -328 q 77 -436 52 -436 q 119 -426 102 -436 q 136 -339 136 -416 l 136 1273 q 51 1337 136 1322 q -174 1364 -76 1362 l -190 1364 q -340 1343 -277 1364 l -315 1398 q -230 1525 -279 1480 q -121 1578 -182 1570 q -52 1583 -86 1583 q -1 1580 -26 1583 q 119 1552 50 1575 q 134 1586 134 1573 q 106 1628 134 1603 l 170 1695 l 186 1676 q 202 1618 202 1655 q 155 1540 202 1594 q 245 1471 233 1508 q 270 1518 270 1503 q 241 1560 270 1535 l 305 1628 l 321 1607 q 338 1551 338 1587 q 288 1465 338 1513 l 218 1394 q 271 1273 271 1369 l 271 -339 z "},"ៀ":{"ha":407,"x_min":-271,"x_max":387,"o":"m 271 -339 q 153 -475 271 -407 q 0 -543 34 -543 q -108 -500 -34 -543 q -271 -339 -271 -407 l -271 -237 l -195 -161 q -153 -136 -170 -136 q -136 -170 -136 -136 l -136 -305 q -42 -382 -136 -328 q 77 -436 52 -436 q 119 -426 102 -436 q 136 -339 136 -416 l 136 583 q 39 637 136 624 q 7 669 7 642 q 24 736 7 696 l 136 1017 l 237 1017 q 283 997 268 1017 q 298 935 298 976 q 330 987 326 963 l 330 990 q 259 1126 330 1018 q 183 1300 183 1241 q 221 1407 183 1356 q 349 1488 259 1457 q 295 1354 295 1414 q 341 1243 296 1313 q 387 1085 387 1173 q 330 867 387 936 q 241 811 282 811 q 224 814 233 811 q 237 859 233 835 l 237 862 q 211 882 237 882 l 147 882 l 100 764 q 229 714 186 749 q 271 627 271 680 l 271 -339 z "},"េ":{"ha":407,"x_min":7,"x_max":400,"o":"m 271 223 q 323 318 323 283 q 298 339 323 339 l 271 339 l 271 223 m 136 583 q 39 637 136 624 q 7 669 7 642 q 24 736 7 696 l 136 1017 l 339 1017 q 321 877 339 935 q 260 793 303 819 q 271 859 271 835 q 237 882 271 882 l 147 882 l 100 764 q 229 714 186 749 q 271 627 271 680 l 271 441 l 298 441 q 375 419 349 441 q 400 353 400 397 q 314 170 400 271 l 199 34 q 153 0 170 0 q 136 27 136 0 l 136 583 z "},"ែ":{"ha":407,"x_min":-24,"x_max":473,"o":"m 271 223 q 323 318 323 283 q 298 339 323 339 l 271 339 l 271 223 m 136 583 q 39 637 136 624 q 7 669 7 642 q 24 736 7 696 l 136 1017 l 339 1017 q 321 877 339 935 q 260 793 303 819 q 271 859 271 835 q 237 882 271 882 l 147 882 l 100 764 q 229 714 186 749 q 271 627 271 680 l 271 441 l 298 441 q 375 419 349 441 q 400 353 400 397 q 314 170 400 271 l 199 34 q 153 0 170 0 q 136 27 136 0 l 136 583 m 471 1501 q 473 1479 473 1491 q 378 1238 473 1386 q 264 1116 326 1154 q 160 1086 215 1086 q 136 1087 148 1086 q -24 1164 -18 1109 l -24 1169 q 18 1295 -24 1198 q 96 1381 50 1355 q 174 1401 131 1401 q 199 1400 186 1401 q 276 1366 258 1392 q 284 1339 284 1354 q 273 1298 284 1321 q 167 1242 243 1242 q 135 1244 152 1242 q 138 1257 138 1251 q 112 1278 138 1274 q 103 1278 107 1278 q 65 1257 76 1278 q 64 1252 64 1255 q 187 1213 64 1230 q 208 1211 198 1211 q 353 1310 304 1211 q 387 1424 387 1380 q 376 1466 387 1449 q 244 1545 346 1513 q 391 1628 343 1628 q 422 1615 410 1628 q 471 1501 462 1569 z "},"ៃ":{"ha":407,"x_min":-54,"x_max":441,"o":"m 271 223 q 323 318 323 283 q 298 339 323 339 l 271 339 l 271 223 m 136 583 q 39 637 136 624 q 7 669 7 642 q 24 736 7 696 l 136 1017 l 339 1017 q 321 877 339 935 q 260 793 303 819 q 271 859 271 835 q 237 882 271 882 l 147 882 l 100 764 q 229 714 186 749 q 271 627 271 680 l 271 441 l 298 441 q 375 419 349 441 q 400 353 400 397 q 314 170 400 271 l 199 34 q 153 0 170 0 q 136 27 136 0 l 136 583 m 152 1288 q 142 1255 142 1269 q 203 1221 142 1221 q 347 1278 322 1221 q 351 1299 351 1289 q 271 1336 351 1336 q 23 1286 64 1336 q 87 1510 87 1454 q 81 1535 87 1528 q -44 1560 55 1560 l -54 1560 q 56 1695 -1 1695 q 168 1654 114 1695 q 189 1598 189 1638 q 136 1412 189 1535 q 271 1472 191 1472 q 425 1421 386 1472 q 441 1367 441 1400 q 441 1357 441 1362 q 415 1264 439 1318 q 322 1130 375 1175 q 203 1085 269 1085 q 30 1160 30 1085 q 152 1288 31 1234 z "},"ោ":{"ha":407,"x_min":-102,"x_max":271,"o":"m -102 882 q -85 983 -102 949 q -34 1017 -68 1017 l 271 1017 l 271 102 l 136 -34 l 136 882 l -102 882 z "},"ៅ":{"ha":407,"x_min":-102,"x_max":271,"o":"m 136 842 l 136 882 l -102 882 q -85 983 -102 949 q -34 1017 -68 1017 l 195 1017 q 144 1126 184 1065 q 68 1300 68 1241 q 106 1407 68 1356 q 233 1488 144 1457 q 180 1354 180 1414 q 226 1243 180 1313 q 271 1085 271 1173 q 268 1017 271 1048 l 271 1017 l 271 102 l 136 -34 l 136 812 q 127 811 131 811 q 109 814 118 811 q 136 842 123 827 z "},"ំ":{"ha":0,"x_min":-593,"x_max":-221,"o":"m -367 1333 q -452 1391 -417 1379 q -473 1395 -463 1395 q -507 1380 -493 1395 q -518 1351 -518 1368 q -512 1324 -518 1339 q -448 1246 -498 1291 q -363 1188 -397 1200 q -341 1184 -351 1184 q -308 1199 -321 1184 q -296 1228 -296 1211 q -302 1255 -296 1240 q -367 1333 -317 1288 m -408 1491 q -316 1464 -361 1491 q -247 1389 -272 1438 q -221 1286 -221 1340 q -246 1186 -221 1234 q -315 1111 -271 1138 q -408 1084 -359 1084 q -500 1111 -456 1084 q -569 1186 -545 1138 q -593 1286 -593 1234 q -568 1389 -593 1340 q -499 1464 -543 1438 q -408 1491 -454 1491 z "},"ះ":{"ha":644,"x_min":136,"x_max":508,"o":"m 362 859 q 277 917 312 905 q 256 921 266 921 q 222 906 236 921 q 211 877 211 894 q 217 850 211 865 q 281 772 231 817 q 366 714 332 726 q 388 710 378 710 q 421 725 408 710 q 433 754 433 737 q 427 781 433 766 q 362 859 412 814 m 321 1017 q 413 990 368 1017 q 483 915 457 964 q 508 812 508 866 q 483 712 508 760 q 414 637 458 664 q 321 610 370 610 q 229 637 273 610 q 160 712 184 664 q 136 812 136 760 q 161 915 136 866 q 230 990 186 964 q 321 1017 275 1017 m 362 249 q 277 307 312 295 q 256 311 266 311 q 222 296 236 311 q 211 267 211 283 q 217 240 211 254 q 281 161 231 207 q 366 104 332 115 q 388 100 378 100 q 421 115 408 100 q 433 144 433 127 q 427 170 433 156 q 362 249 412 203 m 321 406 q 413 380 368 406 q 483 304 457 353 q 508 202 508 256 q 484 102 508 150 q 414 27 458 54 q 321 0 370 0 q 229 27 273 0 q 160 102 184 54 q 136 202 136 150 q 161 304 136 256 q 231 380 186 353 q 321 406 275 406 z "},"ៈ":{"ha":475,"x_min":136,"x_max":339,"o":"m 136 678 l 136 882 l 339 882 l 339 678 l 136 678 m 136 0 l 136 203 l 339 203 l 339 0 l 136 0 z "},"៉":{"ha":0,"x_min":-610,"x_max":-203,"o":"m -339 1085 l -339 1458 l -203 1594 l -203 1221 l -339 1085 m -610 1085 l -610 1458 l -475 1594 l -475 1221 l -610 1085 z "},"៊":{"ha":0,"x_min":-732,"x_max":-136,"o":"m -722 1074 q -732 1093 -732 1079 q -716 1144 -732 1112 l -644 1289 l -434 1289 q -407 1221 -407 1289 q -332 1289 -363 1289 l -136 1289 q -153 1148 -136 1206 q -228 1052 -172 1090 q -210 1130 -214 1106 l -210 1133 q -236 1153 -210 1153 l -359 1153 q -448 1072 -399 1153 q -441 1117 -441 1099 q -468 1153 -441 1153 l -646 1153 l -661 1122 q -663 1112 -663 1116 q -608 1090 -663 1090 q -667 1063 -637 1063 q -722 1074 -699 1063 z "},"់":{"ha":0,"x_min":-475,"x_max":-339,"o":"m -475 1085 l -475 1458 l -339 1594 l -339 1221 l -475 1085 z "},"៌":{"ha":0,"x_min":-677,"x_max":0,"o":"m -136 1267 q -298 1295 -228 1267 q -407 1322 -369 1322 q -580 1205 -511 1322 q -435 1269 -513 1261 q -416 1270 -427 1270 q -208 1224 -340 1270 q -155 1190 -166 1210 q -151 1174 -151 1182 q -163 1142 -151 1160 l -202 1088 l -287 1112 q -511 1148 -414 1146 l -523 1148 q -677 1119 -613 1148 l -653 1196 q -561 1383 -616 1310 q -407 1458 -506 1457 q -216 1407 -313 1458 q -94 1356 -120 1356 q -68 1376 -68 1356 q -96 1422 -68 1400 l -33 1516 l -16 1488 q 0 1409 0 1459 q -35 1312 0 1357 q -136 1267 -69 1267 z "},"៍":{"ha":0,"x_min":-677,"x_max":67,"o":"m -382 1084 l -443 1085 q -614 1124 -551 1085 q -677 1207 -677 1162 l -677 1208 q -593 1357 -677 1253 q -474 1438 -536 1425 q -446 1440 -460 1440 q -344 1407 -397 1440 q -235 1266 -258 1352 q -169 1447 -218 1267 q -101 1582 -144 1537 q 5 1628 -58 1628 l 67 1628 l 5 1492 q -113 1407 -88 1492 l -138 1322 q -239 1153 -189 1153 q -403 1289 -301 1225 q -513 1331 -471 1331 q -556 1314 -540 1331 q -574 1276 -574 1293 q -547 1236 -574 1255 q -339 1153 -410 1153 l -382 1084 z "},"៎":{"ha":0,"x_min":-661,"x_max":-152,"o":"m -338 1316 l -338 1221 l -474 1085 l -474 1316 l -586 1316 l -661 1383 l -474 1383 l -474 1458 l -338 1594 l -338 1383 l -233 1383 l -152 1316 l -338 1316 z "},"៏":{"ha":0,"x_min":-678,"x_max":-62,"o":"m -358 1257 q -284 1276 -314 1276 q -240 1257 -255 1276 q -230 1228 -230 1244 q -268 1152 -230 1197 q -372 1085 -326 1085 q -479 1140 -419 1085 l -548 1085 q -678 1208 -678 1163 q -606 1373 -678 1253 q -475 1492 -533 1492 q -323 1381 -381 1492 q -285 1497 -298 1381 q -229 1654 -271 1613 q -123 1695 -186 1695 l -62 1695 l -123 1560 q -224 1441 -203 1560 q -267 1352 -234 1382 q -330 1322 -301 1322 q -392 1339 -358 1322 q -475 1356 -426 1356 q -567 1313 -536 1356 q -574 1292 -574 1303 q -490 1194 -574 1253 l -422 1253 q -319 1162 -339 1162 q -315 1164 -316 1162 q -313 1171 -313 1166 q -358 1257 -313 1193 z "},"័":{"ha":0,"x_min":-543,"x_max":-1,"o":"m -256 1089 q -314 1083 -284 1083 q -397 1095 -354 1083 q -543 1186 -543 1134 q -484 1304 -543 1211 q -397 1376 -445 1356 q -340 1387 -370 1387 q -295 1381 -318 1387 q -224 1340 -239 1367 q -220 1320 -220 1331 q -237 1277 -220 1301 q -293 1240 -258 1249 q -326 1236 -309 1236 q -377 1243 -349 1236 q -373 1257 -373 1251 q -395 1277 -373 1272 q -410 1279 -404 1279 q -443 1262 -431 1279 q -445 1257 -445 1259 q -330 1206 -445 1236 q -237 1193 -279 1193 q -218 1194 -228 1193 q -138 1224 -170 1198 q -102 1283 -106 1249 q -100 1297 -100 1290 q -119 1358 -100 1324 q -162 1522 -162 1441 q -132 1603 -162 1565 q -31 1663 -102 1640 q -73 1563 -73 1607 q -37 1474 -73 1539 q -1 1344 -1 1409 q -32 1250 -1 1298 q -125 1153 -63 1202 q -256 1089 -188 1103 z "},"៑":{"ha":0,"x_min":-746,"x_max":-68,"o":"m -68 1221 l -203 1085 l -746 1085 l -610 1221 l -68 1221 z "},"្":{"ha":0,"x_min":-543,"x_max":-271,"o":"m -271 -305 l -373 -305 l -373 -407 l -441 -407 l -441 -305 l -543 -305 l -543 -237 l -441 -237 l -441 -136 l -373 -136 l -373 -237 l -271 -237 l -271 -305 z "},"៓":{"ha":0,"x_min":-644,"x_max":-169,"o":"m -510 1219 q -485 1168 -510 1185 q -407 1152 -458 1152 q -329 1168 -355 1152 q -304 1219 -304 1185 q -329 1270 -304 1253 q -407 1287 -355 1287 q -485 1270 -458 1287 q -510 1219 -510 1253 m -169 1219 q -229 1118 -169 1152 q -406 1084 -288 1084 q -584 1118 -525 1084 q -644 1219 -644 1152 q -584 1321 -644 1287 q -406 1355 -525 1355 q -229 1321 -288 1355 q -169 1219 -169 1287 z "},"។":{"ha":949,"x_min":136,"x_max":814,"o":"m 678 764 l 678 882 l 814 1017 l 814 109 q 677 -41 814 37 q 552 -87 610 -81 q 531 -88 541 -88 q 448 -66 486 -88 q 356 -37 401 -40 l 351 -37 q 258 -97 308 -37 q 256 -73 256 -84 l 256 -66 q 260 -43 257 -53 q 307 27 270 -10 q 398 77 343 65 q 429 80 413 80 q 509 56 469 80 q 633 5 595 5 q 649 9 643 5 q 678 81 678 26 l 678 691 q 471 582 542 582 l 467 582 q 319 612 379 582 q 136 794 136 707 q 226 916 136 814 q 373 1017 316 1017 q 540 917 469 1017 q 555 876 555 897 q 481 769 555 827 l 439 825 q 373 882 397 882 q 286 863 301 882 q 271 804 271 846 q 391 729 271 789 q 539 668 511 668 q 643 733 568 668 l 678 764 z "},"៕":{"ha":1221,"x_min":136,"x_max":1085,"o":"m 678 764 l 678 882 l 814 1017 l 814 -41 q 677 -191 814 -113 q 552 -236 610 -230 q 531 -237 541 -237 q 448 -216 486 -237 q 356 -186 401 -189 l 351 -186 q 258 -246 308 -186 q 256 -222 256 -233 l 256 -216 q 260 -192 257 -202 q 307 -122 270 -159 q 398 -73 343 -84 q 429 -69 413 -69 q 509 -93 469 -69 q 633 -144 595 -144 q 649 -140 643 -144 q 678 -68 678 -123 l 678 691 q 471 582 542 582 l 467 582 q 319 612 379 582 q 136 794 136 707 q 226 916 136 814 q 373 1017 316 1017 q 540 917 469 1017 q 555 876 555 897 q 481 769 555 827 l 439 825 q 373 882 397 882 q 286 863 301 882 q 271 804 271 846 q 391 729 271 789 q 539 668 511 668 q 643 733 568 668 l 678 764 m 949 882 l 1085 1017 l 1085 -102 l 949 -237 l 949 882 z "},"៖":{"ha":644,"x_min":68,"x_max":576,"o":"m 362 859 q 277 917 312 905 q 256 921 266 921 q 222 906 236 921 q 211 877 211 894 q 217 850 211 865 q 281 772 231 817 q 366 714 332 726 q 388 710 378 710 q 421 725 408 710 q 433 754 433 737 q 427 781 433 766 q 362 859 412 814 m 321 1017 q 413 990 368 1017 q 483 915 457 964 q 508 812 508 866 q 483 712 508 760 q 414 637 458 664 q 321 610 370 610 q 229 637 273 610 q 160 712 184 664 q 136 812 136 760 q 161 915 136 866 q 230 990 186 964 q 321 1017 275 1017 m 362 249 q 277 307 312 295 q 256 311 266 311 q 222 296 236 311 q 211 267 211 283 q 217 240 211 254 q 281 161 231 207 q 366 104 332 115 q 388 100 378 100 q 421 115 408 100 q 433 144 433 127 q 427 170 433 156 q 362 249 412 203 m 321 406 q 413 380 368 406 q 483 304 457 353 q 508 202 508 256 q 484 102 508 150 q 414 27 458 54 q 321 0 370 0 q 229 27 273 0 q 160 102 184 54 q 136 202 136 150 q 161 304 136 256 q 231 380 186 353 q 321 406 275 406 m 68 475 l 136 543 l 576 543 l 509 475 l 68 475 z "},"ៗ":{"ha":949,"x_min":136,"x_max":814,"o":"m 678 874 l 622 810 q 522 746 566 746 q 446 786 479 746 l 412 825 q 339 882 370 882 q 286 863 301 882 q 258 770 258 839 q 298 734 258 749 q 329 730 312 730 q 403 746 361 730 l 400 724 q 316 652 359 669 q 281 646 299 646 q 227 660 255 646 q 136 767 136 707 q 226 916 136 814 q 353 1017 316 1017 q 506 917 435 1017 l 560 853 l 712 1017 l 814 916 l 814 -41 q 677 -191 814 -113 q 552 -236 610 -230 q 531 -237 541 -237 q 448 -216 486 -237 q 356 -186 401 -189 l 351 -186 q 258 -246 308 -186 q 256 -222 256 -233 l 256 -216 q 260 -192 257 -202 q 307 -122 270 -159 q 398 -73 343 -84 q 429 -69 413 -69 q 509 -93 469 -69 q 633 -144 595 -144 q 649 -140 643 -144 q 678 -68 678 -123 l 678 874 z "},"៘":{"ha":2984,"x_min":136,"x_max":2848,"o":"m 678 764 l 678 882 l 814 1017 l 814 102 q 677 -48 814 30 q 552 -94 610 -87 q 531 -95 541 -95 q 448 -73 486 -95 q 356 -44 401 -47 l 351 -44 q 258 -104 308 -44 q 256 -80 256 -91 l 256 -73 q 260 -50 257 -60 q 307 20 270 -17 q 398 70 343 58 q 429 73 413 73 q 509 50 469 73 q 633 -1 595 -1 q 649 3 643 -1 q 678 75 678 20 l 678 691 q 471 582 542 582 l 467 582 q 319 612 379 582 q 136 794 136 707 q 226 916 136 814 q 373 1017 316 1017 q 540 917 469 1017 q 555 876 555 897 q 481 769 555 827 l 439 825 q 373 882 397 882 q 286 863 301 882 q 271 804 271 846 q 391 729 271 789 q 539 668 511 668 q 643 733 568 668 l 678 764 m 1221 210 q 1282 311 1282 270 q 1255 339 1282 339 l 1221 339 l 1221 210 m 1628 278 q 1614 237 1628 251 q 1712 161 1614 214 q 1839 106 1813 106 q 1881 117 1865 106 q 1899 203 1899 126 l 1899 583 q 1803 637 1899 624 q 1770 669 1770 642 q 1787 736 1770 696 l 1899 1017 l 2102 1017 q 2085 877 2102 935 q 2024 793 2066 819 q 2035 859 2035 835 q 2001 882 2035 882 l 1910 882 l 1864 764 q 1992 714 1949 749 q 2035 627 2035 680 l 2035 203 q 1913 68 2035 136 q 1756 0 1791 0 q 1646 43 1722 0 q 1520 130 1563 90 q 1457 234 1478 170 q 1485 257 1478 243 q 1492 292 1492 271 l 1492 882 l 1097 882 l 1063 791 q 1178 742 1135 776 q 1221 654 1221 707 l 1221 441 l 1255 441 q 1356 339 1356 441 q 1267 149 1356 237 l 1149 30 q 1102 0 1119 0 q 1085 27 1085 0 l 1085 610 q 1002 665 1085 651 q 970 696 970 669 q 987 764 970 723 l 1085 1017 l 1628 1017 l 1628 278 m 2713 764 l 2713 882 l 2848 1017 l 2848 102 q 2712 -48 2848 30 q 2587 -94 2644 -87 q 2566 -95 2576 -95 q 2483 -73 2521 -95 q 2391 -44 2436 -47 l 2386 -44 q 2292 -104 2342 -44 q 2291 -80 2291 -91 l 2291 -73 q 2294 -50 2292 -60 q 2341 20 2304 -17 q 2433 70 2378 58 q 2463 73 2448 73 q 2543 50 2503 73 q 2667 -1 2630 -1 q 2684 3 2677 -1 q 2713 75 2713 20 l 2713 691 q 2506 582 2576 582 l 2502 582 q 2354 612 2414 582 q 2170 794 2170 707 q 2260 916 2170 814 q 2407 1017 2351 1017 q 2574 917 2504 1017 q 2589 876 2589 897 q 2516 769 2589 827 l 2474 825 q 2407 882 2432 882 q 2321 863 2336 882 q 2306 804 2306 846 q 2426 729 2306 789 q 2574 668 2545 668 q 2677 733 2602 668 l 2713 764 z "},"៙":{"ha":1051,"x_min":203,"x_max":848,"o":"m 526 0 q 284 119 365 0 q 203 475 203 237 q 284 831 203 712 q 526 949 365 949 q 767 831 686 949 q 848 475 848 712 q 767 119 848 237 q 526 0 686 0 m 526 870 q 345 772 405 870 q 284 475 284 673 q 345 178 284 277 q 526 79 405 79 q 707 178 646 79 q 767 475 767 277 q 707 772 767 673 q 526 870 646 870 m 526 158 q 405 237 445 158 q 365 475 365 317 q 405 712 365 633 q 526 791 445 791 q 646 712 606 791 q 686 475 686 633 q 646 237 686 317 q 526 158 606 158 m 526 712 q 465 653 486 712 q 445 475 445 593 q 465 297 445 356 q 526 237 486 237 q 586 297 566 237 q 606 475 606 356 q 586 653 606 593 q 526 712 566 712 z "},"៚":{"ha":2374,"x_min":136,"x_max":2272,"o":"m 1947 365 q 1936 347 1936 353 q 1937 344 1936 345 q 1945 338 1940 338 q 1954 342 1949 338 q 1954 345 1954 343 q 1947 365 1954 350 m 1046 664 q 1088 753 1088 728 q 1083 767 1088 762 q 1051 783 1067 783 q 1015 760 1032 783 q 1010 744 1010 753 q 1038 676 1010 720 q 1046 664 1042 670 m 1235 298 q 1205 243 1205 260 q 1208 235 1205 238 q 1236 220 1221 220 q 1261 231 1248 220 q 1265 239 1265 233 q 1235 298 1265 257 m 1466 690 q 1493 737 1493 724 q 1491 742 1493 740 q 1469 755 1481 755 q 1449 747 1459 755 q 1445 739 1445 745 q 1466 690 1445 724 m 1619 317 q 1605 298 1605 302 q 1606 296 1605 297 q 1617 291 1611 291 q 1628 294 1622 291 q 1629 297 1629 295 q 1619 317 1629 302 m 1853 664 q 1870 685 1870 681 q 1869 686 1870 686 q 1862 689 1866 689 q 1849 683 1855 689 q 1847 680 1847 682 q 1853 664 1847 674 m 1971 500 q 2030 521 1999 513 q 2207 543 2108 543 q 2272 492 2272 543 q 2205 441 2272 441 l 2123 441 q 2020 418 2065 441 q 2040 367 2034 391 q 2045 331 2045 347 q 2013 264 2045 289 q 1940 235 1974 235 q 1929 236 1934 235 q 1854 284 1889 241 q 1828 351 1828 317 q 1830 371 1828 361 q 1890 452 1840 412 q 1868 484 1880 467 q 1846 513 1856 498 q 1777 454 1815 484 q 1687 379 1724 410 q 1708 331 1700 353 q 1719 275 1719 300 q 1691 215 1719 237 q 1616 186 1651 186 q 1604 186 1610 186 q 1527 238 1563 193 q 1512 285 1512 258 q 1535 358 1512 317 q 1563 398 1547 377 q 1505 475 1539 431 l 1458 533 q 1382 452 1425 495 q 1295 366 1331 404 q 1340 285 1324 321 q 1356 219 1356 248 q 1324 155 1356 178 q 1232 117 1276 117 q 1223 118 1227 117 q 1132 172 1175 122 q 1111 231 1111 197 q 1133 311 1111 266 q 1172 376 1147 341 q 1105 449 1143 408 q 1055 503 1078 477 q 947 362 1010 438 q 663 91 795 181 q 417 0 530 0 q 206 127 277 0 q 136 509 136 254 q 216 890 136 763 q 458 1017 297 1017 q 700 950 619 1017 q 780 749 780 883 q 722 528 780 611 q 545 414 663 444 q 519 410 531 410 q 475 446 485 410 q 472 464 472 456 q 519 511 472 498 q 638 590 598 532 q 678 744 678 648 q 623 872 678 829 q 458 916 568 916 q 293 814 348 916 q 238 513 238 713 l 238 509 q 283 203 238 305 q 418 102 328 102 q 617 180 507 102 q 858 416 727 259 q 991 585 939 514 q 937 682 955 637 q 920 759 920 724 q 949 836 920 804 q 1049 895 999 894 l 1050 895 q 1149 838 1099 895 q 1174 766 1174 810 q 1148 663 1174 722 q 1108 585 1133 627 q 1173 514 1137 552 q 1231 449 1204 480 q 1306 528 1264 486 q 1400 619 1361 579 q 1363 704 1378 659 q 1352 762 1352 736 q 1385 833 1352 808 q 1472 867 1432 867 q 1482 867 1477 867 q 1567 812 1528 861 q 1584 758 1584 789 q 1559 673 1584 722 q 1521 611 1544 644 q 1576 541 1545 580 q 1630 470 1606 504 q 1701 534 1661 500 q 1786 604 1751 574 q 1763 661 1770 635 q 1756 701 1756 682 q 1788 764 1756 741 q 1861 793 1826 793 q 1873 792 1867 793 q 1950 741 1914 787 q 1967 694 1967 721 q 1943 624 1967 663 q 1910 579 1930 603 q 1942 538 1925 561 q 1971 500 1958 519 z "},"៛":{"ha":407,"x_min":7,"x_max":400,"o":"m 138 328 l 102 299 l 138 257 l 138 328 m 271 475 l 271 102 l 195 26 q 153 0 170 0 q 136 24 136 0 q 71 142 136 79 q 7 271 7 203 q 41 328 7 305 l 136 393 l 136 475 l 7 475 l 75 543 l 136 543 l 136 583 q 39 637 136 624 q 7 669 7 642 q 24 736 7 696 l 136 1017 l 339 1017 q 321 877 339 935 q 260 793 303 819 q 271 859 271 835 q 237 882 271 882 l 147 882 l 100 764 q 229 714 186 749 q 271 627 271 680 l 271 543 l 400 543 l 332 475 l 271 475 z "},"០":{"ha":814,"x_min":136,"x_max":678,"o":"m 271 237 q 365 160 271 214 q 484 106 459 106 q 526 117 509 106 q 543 203 543 126 l 543 780 q 449 857 543 803 q 330 911 355 911 q 288 901 304 911 q 271 814 271 891 l 271 237 m 136 814 q 254 949 136 882 q 407 1017 373 1017 q 515 975 441 1017 q 678 814 678 882 l 678 203 q 559 68 678 136 q 407 0 441 0 q 299 43 373 0 q 136 203 136 136 l 136 814 z "},"១":{"ha":814,"x_min":121,"x_max":678,"o":"m 271 678 l 271 549 q 332 650 332 609 q 305 678 332 678 l 271 678 m 543 780 q 449 857 543 803 q 330 911 355 911 q 288 901 304 911 q 271 814 271 891 l 271 780 l 305 780 q 407 678 407 780 q 318 488 407 576 l 203 373 l 136 440 l 136 814 q 254 949 136 882 q 407 1017 373 1017 q 515 975 441 1017 q 678 814 678 882 l 678 197 q 542 47 678 125 q 416 1 474 7 q 395 0 406 0 q 313 22 351 0 q 220 51 266 48 l 216 51 q 122 -9 172 51 q 121 15 121 4 l 121 22 q 124 45 121 35 q 171 115 134 78 q 262 165 208 153 q 293 168 277 168 q 373 144 333 168 q 497 94 460 94 q 513 98 507 94 q 543 170 543 115 l 543 780 z "},"២":{"ha":1017,"x_min":0,"x_max":882,"o":"m 746 882 l 705 882 q 564 772 645 882 l 569 800 q 572 837 572 821 q 543 882 572 882 l 419 882 q 407 831 407 853 q 417 800 407 812 q 562 731 437 772 q 473 616 534 658 q 368 654 397 633 q 339 772 339 675 q 373 943 339 868 l 407 1017 l 570 1017 q 617 929 617 1017 q 726 1017 668 1017 l 882 1017 l 882 203 q 711 68 882 136 q 494 0 541 0 q 343 43 447 0 q 173 130 229 90 q 87 234 117 170 q 126 257 117 243 q 136 292 136 271 l 136 1141 q 102 1208 136 1184 q 0 1241 68 1234 l 67 1275 q 134 1292 100 1292 q 203 1274 168 1292 q 271 1139 271 1240 l 271 298 q 253 257 271 271 q 412 171 253 235 q 606 106 572 106 q 694 116 642 106 q 746 203 746 126 l 746 882 z "},"៣":{"ha":1085,"x_min":136,"x_max":949,"o":"m 271 210 q 332 311 332 270 q 305 339 332 339 l 271 339 l 271 210 m 475 780 q 399 857 475 803 q 305 911 324 911 q 279 901 287 911 q 271 814 271 891 l 271 441 l 305 441 q 382 416 356 441 q 407 339 407 390 q 318 149 407 237 l 199 30 q 153 0 170 0 q 136 27 136 0 l 136 814 q 239 949 136 882 q 373 1017 343 1017 q 467 975 403 1017 q 540 922 510 947 q 578 949 557 935 q 712 1017 682 1017 q 806 975 742 1017 q 949 814 949 882 l 949 102 l 814 -34 l 814 780 q 739 857 814 803 q 644 911 663 911 q 618 901 626 911 q 610 814 610 891 l 610 102 l 475 -34 l 475 780 z "},"៤":{"ha":814,"x_min":136,"x_max":678,"o":"m 245 770 q 449 906 355 862 q 543 1017 543 949 q 509 1153 543 1099 q 475 1266 475 1207 q 513 1373 475 1322 q 640 1454 551 1423 q 587 1320 587 1380 q 633 1209 587 1279 q 678 1017 678 1139 q 528 862 678 921 q 324 738 376 802 q 271 597 271 673 l 271 109 l 352 254 q 590 129 550 129 q 599 133 597 129 q 600 139 600 136 q 509 229 600 166 q 407 441 407 298 q 451 619 407 559 q 583 678 495 678 q 678 576 678 678 q 610 453 678 475 q 583 543 610 543 q 543 441 543 543 q 610 313 543 373 q 678 177 678 254 q 651 50 678 100 q 567 0 624 0 q 344 113 509 0 l 308 57 q 203 0 271 0 l 136 68 l 136 597 q 245 770 136 677 z "},"៥":{"ha":814,"x_min":102,"x_max":678,"o":"m 340 848 l 340 849 q 271 882 340 882 q 183 844 187 882 q 182 839 182 842 q 237 807 182 807 q 323 811 284 807 q 340 848 338 833 m 406 827 q 473 861 446 840 q 543 1017 543 916 q 509 1153 543 1099 q 475 1266 475 1207 q 513 1373 475 1322 q 640 1454 551 1423 q 587 1320 587 1380 q 633 1209 587 1279 q 678 1017 678 1139 q 522 813 678 948 q 330 694 420 726 q 271 543 271 618 l 271 109 l 352 254 q 590 129 550 129 q 599 133 597 129 q 600 139 600 136 q 509 229 600 166 q 407 407 407 298 q 451 551 407 492 q 583 610 495 610 q 678 509 678 610 q 610 385 678 407 q 583 475 610 475 q 543 407 543 475 q 610 313 543 373 q 678 177 678 254 q 651 50 678 100 q 567 0 624 0 q 344 113 509 0 l 308 57 q 203 0 271 0 l 136 68 l 136 543 q 209 680 136 589 q 128 722 155 687 q 102 819 102 757 q 146 968 102 920 q 271 1017 191 1017 q 376 975 346 1017 q 407 848 407 932 l 407 843 q 406 827 407 836 z "},"៦":{"ha":814,"x_min":68,"x_max":678,"o":"m 271 444 q 305 503 305 466 q 292 525 305 525 q 271 516 284 525 l 271 444 m 543 780 q 449 857 543 803 q 330 911 355 911 q 288 901 304 911 q 271 848 271 891 q 203 776 271 776 q 136 848 136 776 l 136 1133 q 119 1160 136 1160 q 68 1139 103 1160 q 190 1289 136 1289 q 271 1133 271 1289 l 271 959 q 407 1017 376 1017 q 515 975 441 1017 q 678 814 678 882 l 678 203 q 559 68 678 136 q 407 0 441 0 q 299 43 373 0 q 136 203 136 136 l 136 475 q 204 559 136 509 q 319 610 273 610 q 385 586 363 610 q 407 512 407 562 q 373 442 407 477 q 271 373 339 407 l 271 237 q 365 160 271 214 q 484 106 459 106 q 526 117 509 106 q 543 203 543 126 l 543 780 z "},"៧":{"ha":1017,"x_min":136,"x_max":949,"o":"m 271 210 q 312 298 312 256 q 271 339 312 339 l 271 210 m 271 441 q 361 416 336 441 q 387 339 387 390 q 318 149 387 224 l 199 30 q 153 0 170 0 q 136 27 136 0 l 136 814 q 275 1018 258 1017 l 275 1018 q 351 956 292 1018 l 409 894 l 469 956 q 546 1017 529 1017 q 621 953 563 1017 q 678 858 678 888 l 678 827 q 576 543 576 657 l 576 203 q 631 119 576 170 q 715 68 685 68 q 746 203 746 68 l 746 1017 q 797 1204 746 1136 q 949 1289 848 1272 q 882 1017 882 1221 l 882 203 q 804 64 882 129 q 661 0 726 0 q 519 68 597 0 q 441 203 441 136 l 441 509 q 528 766 441 608 q 543 814 543 793 q 529 850 543 835 q 503 864 516 864 q 468 844 486 864 l 368 735 l 271 840 l 271 441 z "},"៨":{"ha":814,"x_min":136,"x_max":678,"o":"m 678 109 q 644 35 678 69 q 543 0 609 0 q 437 32 463 0 l 357 127 l 303 64 q 227 0 250 0 q 170 34 203 0 q 136 109 136 68 l 136 814 q 244 949 136 882 q 383 1017 352 1017 q 481 975 414 1017 l 542 941 q 543 963 543 951 q 509 1099 543 1044 q 475 1212 475 1153 q 513 1318 475 1268 q 640 1400 551 1369 q 587 1265 587 1326 q 633 1155 587 1225 q 678 963 678 1085 q 624 868 678 924 q 544 809 569 812 q 536 808 541 808 q 422 857 498 808 q 307 909 338 909 q 295 906 299 909 q 271 852 271 891 l 271 115 l 407 277 l 543 115 l 543 601 q 515 637 543 637 q 488 531 488 637 q 522 407 488 441 q 410 438 448 407 q 373 531 373 469 q 424 655 373 601 q 526 709 475 709 q 627 660 576 709 q 678 576 678 610 l 678 109 z "},"៩":{"ha":814,"x_min":136,"x_max":814,"o":"m 485 644 q 509 646 497 646 q 614 617 565 646 q 703 515 703 566 q 698 492 703 503 q 651 453 683 453 q 604 468 631 453 l 533 507 q 428 540 475 540 q 347 511 383 540 q 271 305 272 452 l 271 304 q 381 161 271 222 q 482 125 446 125 q 519 144 508 125 q 523 157 523 150 q 341 340 523 207 q 455 389 412 389 q 483 382 471 389 q 614 215 614 304 q 539 63 614 125 q 427 0 465 0 q 262 73 389 0 q 136 305 136 144 q 178 443 136 356 q 363 605 222 530 q 364 606 364 605 q 302 635 336 616 q 203 785 203 690 q 261 948 203 880 q 388 1018 319 1017 q 600 901 456 1018 q 677 1186 650 1151 q 743 1221 705 1221 l 743 1221 q 814 1105 814 1221 q 711 1049 749 1105 q 666 938 673 994 l 660 882 q 602 791 653 817 q 575 785 590 785 q 445 852 526 785 q 357 905 392 895 q 337 909 347 909 q 305 893 317 909 q 271 828 271 848 q 378 749 271 809 l 486 688 q 487 671 487 680 q 485 644 487 656 z "},"​":{"ha":0,"x_min":0,"x_max":0,"o":""},"◌":{"ha":882,"x_min":203,"x_max":746,"o":"m 647 170 q 680 141 680 170 q 649 114 680 114 l 647 114 q 614 142 614 115 q 647 170 614 170 m 693 275 q 727 247 727 275 q 693 219 727 219 q 660 247 660 220 q 693 275 660 275 m 566 77 q 600 49 600 77 q 566 21 600 21 q 533 50 533 22 q 566 77 533 77 m 418 56 q 452 28 452 56 q 420 1 452 1 l 418 1 q 385 28 385 1 q 418 56 385 56 m 320 140 q 354 111 354 140 q 322 84 354 84 l 320 84 q 287 112 287 85 q 320 140 287 140 m 265 244 q 299 216 299 244 q 267 189 299 189 l 265 189 q 232 216 232 189 q 265 244 232 244 m 239 353 q 273 325 273 353 q 241 298 273 298 l 239 298 q 206 326 206 298 q 239 353 206 353 m 237 463 q 271 435 271 463 q 239 408 271 408 l 237 408 q 203 435 203 408 q 237 463 203 463 m 253 573 q 287 545 287 573 q 255 517 287 517 l 253 517 q 220 545 220 518 q 253 573 220 573 m 296 680 q 329 652 329 680 q 296 624 329 624 q 262 652 262 625 q 296 680 262 680 m 374 777 q 407 748 407 777 q 376 721 407 721 l 374 721 q 340 749 340 722 q 374 777 340 777 m 500 812 q 534 783 534 812 q 503 756 534 756 l 500 756 q 467 784 467 757 q 500 812 467 812 m 611 741 q 645 713 645 741 q 613 686 645 686 l 611 686 q 578 713 578 686 q 611 741 578 741 m 678 628 q 712 600 712 628 q 680 572 712 572 l 678 572 q 645 600 645 573 q 678 628 645 628 m 707 519 q 741 491 741 519 q 707 463 741 463 q 673 492 673 464 q 707 519 673 519 m 712 393 q 746 364 746 393 q 714 337 746 337 l 712 337 q 679 365 679 338 q 712 393 679 393 z "}}}
